<?xml version="1.0" encoding="UTF-8" standalone="no"?>
<svg
   version="1.0"
   width="1153.875pt"
   height="1308.3pt"
   viewBox="0 0 1153.875 1308.3"
   preserveAspectRatio="xMidYMid meet"
   id="svg14"
   sodipodi:docname="40ebf290503a9546e26de1af2e46af04.svg"
   xmlns:inkscape="http://www.inkscape.org/namespaces/inkscape"
   xmlns:sodipodi="http://sodipodi.sourceforge.net/DTD/sodipodi-0.dtd"
   xmlns="http://www.w3.org/2000/svg"
   xmlns:svg="http://www.w3.org/2000/svg">
  <defs
     id="defs18" />
  <sodipodi:namedview
     id="namedview16"
     pagecolor="#ffffff"
     bordercolor="#666666"
     borderopacity="1.0"
     inkscape:pageshadow="2"
     inkscape:pageopacity="0.0"
     inkscape:pagecheckerboard="0"
     inkscape:document-units="pt" />
  <g
     transform="matrix(0.1,0,0,-0.1,-204,1379.8)"
     fill="#ffffff"
     stroke="none"
     id="g12">
    <path
       d="m 7622,13789 c -34,-4 -77,-15 -94,-24 -19,-9 -34,-11 -38,-6 -5,9 -90,-4 -200,-31 -25,-6 -56,-10 -70,-9 -13,1 -47,-5 -75,-13 -65,-18 -109,-26 -170,-33 -27,-3 -59,-10 -70,-16 -11,-6 -56,-16 -100,-23 -161,-26 -420,-78 -423,-86 -2,-4 -23,-8 -46,-8 -23,0 -46,-4 -51,-9 -6,-5 -30,-11 -55,-14 -25,-2 -56,-8 -70,-12 -14,-4 -45,-10 -70,-12 -25,-3 -50,-10 -57,-15 -7,-5 -16,-7 -22,-4 -9,6 -62,-3 -251,-43 -52,-12 -156,-33 -230,-49 -138,-28 -164,-37 -155,-52 3,-5 0,-12 -6,-16 -6,-3 -15,0 -20,7 -6,11 -16,11 -54,1 -25,-7 -72,-12 -105,-12 -34,0 -70,-6 -83,-14 -12,-7 -58,-19 -102,-25 -100,-16 -175,-31 -195,-41 -9,-5 -44,-11 -80,-15 -35,-3 -72,-11 -82,-16 -11,-6 -26,-9 -36,-8 -33,3 -42,-1 -42,-18 0,-14 -2,-15 -9,-4 -6,9 -17,12 -32,7 -13,-4 -71,-15 -129,-26 -169,-32 -214,-42 -232,-51 -10,-5 -34,-9 -54,-9 -33,0 -126,-19 -200,-41 -17,-5 -40,-9 -51,-9 -11,0 -55,-9 -99,-20 -43,-12 -99,-22 -124,-24 -51,-4 -136,-24 -163,-38 -10,-5 -22,-6 -26,-3 -8,4 -158,-25 -286,-57 -22,-5 -77,-16 -122,-23 -46,-8 -128,-23 -182,-34 -55,-12 -109,-21 -120,-21 -11,0 -26,-6 -33,-13 -7,-6 -26,-13 -43,-14 -72,-4 -215,-27 -215,-35 0,-5 -9,-6 -20,-3 -12,4 -20,2 -20,-5 0,-6 -12,-11 -27,-9 -16,1 -35,0 -43,-3 -8,-3 -40,-11 -70,-18 -30,-7 -60,-16 -65,-21 -14,-11 -97,-39 -116,-39 -24,0 -49,-33 -49,-65 0,-39 84,-119 115,-110 11,3 28,9 38,12 12,4 17,0 17,-12 0,-13 6,-16 25,-11 17,4 25,2 26,-6 0,-7 4,-3 10,10 11,28 32,19 23,-10 -5,-18 -3,-20 20,-14 15,4 36,1 49,-6 12,-6 39,-10 60,-9 21,1 45,-3 53,-10 12,-9 20,-9 39,1 20,11 30,11 48,1 12,-6 34,-13 48,-15 13,-1 30,-5 36,-9 6,-4 47,-9 91,-11 49,-3 89,-10 103,-20 13,-8 36,-14 52,-12 15,2 27,0 27,-4 0,-4 17,-10 38,-12 20,-3 45,-8 55,-12 12,-6 17,-4 17,7 0,13 7,12 51,-4 45,-17 54,-18 68,-6 19,17 41,12 41,-9 0,-9 11,-14 34,-14 19,0 37,-4 41,-9 3,-5 21,-7 41,-4 20,3 39,1 43,-4 8,-13 65,-27 57,-14 -12,18 15,23 39,7 14,-9 53,-19 87,-22 40,-4 68,-12 76,-23 8,-10 15,-12 20,-5 13,19 44,25 61,11 24,-20 97,-40 122,-34 13,3 28,2 35,-4 7,-5 32,-12 56,-15 23,-2 55,-9 70,-15 15,-6 38,-9 52,-5 13,3 40,-1 60,-9 19,-8 51,-15 71,-15 19,0 76,-7 125,-16 50,-8 95,-12 100,-9 6,3 10,2 10,-3 0,-11 54,-21 146,-26 34,-2 72,-10 85,-17 13,-7 42,-14 64,-16 119,-7 220,-22 223,-33 2,-6 20,-10 40,-10 38,0 152,-22 186,-36 16,-6 18,-4 13,10 -6,15 -4,17 10,11 73,-30 134,-43 238,-49 53,-3 232,-30 303,-46 23,-6 58,-10 77,-10 18,0 37,-4 40,-10 3,-5 25,-10 48,-10 23,0 83,-7 132,-16 50,-9 117,-19 150,-21 33,-3 68,-11 78,-18 13,-9 28,-10 50,-4 21,6 33,5 35,-1 2,-5 30,-10 62,-10 38,0 62,-5 70,-15 8,-10 25,-13 57,-10 24,2 57,-1 71,-7 15,-6 37,-10 50,-9 13,0 32,-4 42,-9 11,-6 54,-13 97,-16 43,-3 82,-9 88,-15 5,-5 27,-9 50,-9 22,0 52,-7 67,-14 24,-13 29,-13 36,0 8,14 13,14 48,-1 25,-10 40,-12 42,-5 2,5 8,10 13,10 6,0 7,-4 4,-10 -4,-6 8,-11 27,-12 62,-3 67,-4 74,-11 4,-4 29,-7 55,-7 26,0 50,-4 53,-8 3,-4 24,-8 48,-7 24,1 56,-4 73,-11 18,-7 36,-9 46,-4 10,6 35,3 65,-6 27,-8 60,-14 74,-12 14,1 30,-1 37,-5 16,-10 229,0 252,12 10,6 69,15 132,22 63,6 121,15 129,19 8,4 42,11 75,15 33,3 69,8 79,9 11,1 22,8 24,14 2,6 17,8 36,5 19,-3 36,-1 40,5 4,6 22,8 41,5 25,-4 41,-1 54,11 10,10 25,14 35,10 10,-4 27,-2 39,4 12,6 42,13 67,16 79,9 168,25 190,34 8,3 24,6 35,7 51,2 145,18 145,24 0,4 18,5 40,3 24,-3 49,2 63,10 27,18 79,29 129,28 20,0 40,4 43,10 4,7 19,9 35,5 21,-5 34,-1 48,13 12,12 24,16 29,11 5,-5 23,-4 43,2 19,5 45,12 57,13 13,2 29,9 37,15 10,9 25,10 49,3 25,-7 41,-6 61,5 15,8 50,16 79,19 29,3 67,13 86,21 24,11 35,12 41,4 8,-13 40,-4 40,11 0,6 14,8 36,3 28,-5 39,-2 49,11 11,16 15,16 29,5 14,-12 20,-11 39,8 25,22 47,28 47,11 0,-17 33,-11 57,11 18,18 25,20 37,10 15,-13 66,-5 66,10 0,5 15,9 33,9 18,0 38,5 44,11 8,8 16,7 31,-2 17,-10 24,-9 47,9 15,12 32,19 39,15 6,-4 22,-9 35,-11 21,-3 23,-1 11,12 -11,14 -7,16 32,16 24,0 49,5 56,12 9,9 15,9 24,0 16,-16 47,-15 53,1 3,7 23,13 46,13 23,1 44,6 48,11 3,6 15,9 26,7 10,-2 25,2 31,7 7,5 16,9 20,8 5,-1 11,-1 14,0 9,3 94,12 120,12 14,0 51,10 82,21 41,15 69,19 98,14 32,-5 40,-3 40,9 0,18 41,20 58,3 8,-8 15,-8 24,-1 7,6 30,11 52,11 21,1 45,7 54,14 8,7 23,12 34,10 10,-2 21,4 24,13 6,14 15,16 51,10 29,-4 49,-2 59,5 7,7 23,10 34,7 10,-3 24,1 31,9 7,9 31,14 61,14 27,0 59,5 70,11 14,8 23,8 31,0 7,-7 19,-4 38,10 25,18 29,18 37,3 7,-12 13,-14 28,-6 20,11 54,25 66,26 3,1 9,4 13,7 3,4 26,4 50,1 32,-3 45,-1 45,8 0,8 11,11 33,7 17,-2 43,0 57,6 14,5 31,11 38,13 8,1 23,11 33,20 17,15 24,16 39,6 27,-17 60,-15 60,3 0,8 9,15 20,15 11,0 20,-4 20,-10 0,-11 30,-13 54,-4 8,3 12,12 9,21 -5,12 -1,14 17,8 14,-5 25,-3 30,6 7,10 12,10 23,0 9,-7 18,-8 21,-2 3,5 14,7 25,4 11,-3 27,4 40,18 16,18 24,20 33,11 17,-17 53,-15 68,3 7,9 20,13 28,10 8,-3 16,2 19,14 6,25 40,34 52,14 11,-20 61,-10 61,12 0,20 9,19 32,-2 16,-14 23,-15 38,-5 11,7 25,12 31,12 6,0 22,9 36,20 30,24 53,26 53,5 0,-19 0,-19 39,1 17,8 29,20 26,25 -10,15 23,10 39,-7 18,-17 51,-11 60,11 3,8 13,15 22,15 10,0 26,7 36,17 17,15 19,15 38,-2 17,-15 22,-16 37,-4 25,20 33,32 26,42 -3,5 5,7 18,5 16,-2 25,-11 27,-25 2,-13 7,-23 12,-23 15,0 22,20 11,33 -8,10 -2,13 26,14 25,1 42,8 53,23 15,20 19,21 38,9 17,-11 24,-11 34,-1 9,9 9,12 0,12 -7,0 -22,9 -34,20 -31,28 -61,27 -54,-2 3,-13 3,-17 0,-10 -3,6 -10,9 -16,6 -5,-3 -12,3 -15,14 -5,21 -30,32 -75,32 -20,0 -28,-6 -31,-22 l -4,-23 -2,23 c -1,15 -5,21 -13,16 -6,-4 -16,0 -22,8 -6,8 -27,17 -48,21 -31,5 -37,2 -42,-16 -5,-20 -6,-20 -30,6 -14,15 -34,28 -46,28 -45,3 -56,2 -74,-6 -11,-5 -26,-3 -38,4 -10,6 -23,9 -28,6 -5,-3 -11,-1 -15,5 -3,5 -17,7 -31,4 -17,-4 -26,-1 -30,10 -4,11 -17,16 -38,14 -17,-1 -38,2 -46,7 -8,5 -43,8 -79,8 -51,0 -70,4 -86,19 -13,13 -30,18 -47,15 -16,-2 -28,0 -28,5 0,4 -17,8 -37,8 -21,0 -46,7 -56,14 -13,10 -27,12 -49,5 -24,-7 -34,-5 -43,8 -8,11 -22,14 -46,11 -19,-3 -42,0 -54,8 -11,7 -45,15 -77,18 -31,2 -65,9 -76,15 -12,6 -36,11 -55,11 -18,0 -57,7 -86,16 -36,10 -57,12 -63,6 -11,-11 -34,-6 -58,13 -18,14 -205,39 -220,30 -6,-4 -20,1 -30,10 -13,12 -35,17 -67,17 -26,-1 -52,3 -58,8 -6,5 -38,12 -71,16 -32,4 -66,10 -73,14 -8,5 -26,4 -39,-1 -19,-7 -29,-6 -42,6 -12,11 -45,19 -92,22 -40,3 -83,12 -95,20 -14,9 -33,12 -52,8 -16,-3 -32,-2 -35,4 -5,8 -68,20 -138,26 -10,1 -21,4 -24,8 -4,4 -24,4 -44,1 -27,-4 -45,-1 -64,11 -18,12 -30,15 -37,8 -7,-7 -24,-6 -52,4 -23,8 -62,17 -87,20 -25,3 -79,12 -120,20 -41,7 -142,25 -225,39 -82,14 -175,30 -205,36 -30,5 -68,10 -84,9 -16,0 -38,5 -50,11 -11,7 -48,16 -81,20 -58,8 -132,21 -185,32 -14,3 -97,18 -185,32 -88,14 -162,27 -165,29 -13,8 -171,38 -219,41 -30,3 -60,9 -67,15 -7,6 -35,11 -63,12 -27,1 -53,6 -57,10 -4,4 -24,7 -44,7 -20,0 -40,4 -45,9 -6,5 -46,15 -91,21 -45,6 -95,15 -113,20 -18,5 -38,7 -46,4 -7,-3 -23,0 -35,6 -13,7 -46,16 -74,20 -28,4 -62,11 -76,14 -26,7 -107,21 -200,36 -30,5 -73,13 -95,18 -100,25 -148,30 -255,30 -63,0 -143,-4 -178,-9 z m 4928,-919 c 0,-5 -4,-10 -10,-10 -5,0 -10,5 -10,10 0,6 5,10 10,10 6,0 10,-4 10,-10 z m 375,-50 c 3,-5 -1,-10 -9,-10 -9,0 -16,5 -16,10 0,6 4,10 9,10 6,0 13,-4 16,-10 z m 96,-7 c 12,-15 12,-16 -4,-10 -10,4 -23,7 -28,7 -6,0 -7,5 -4,10 9,15 21,12 36,-7 z m 94,-3 c 18,-8 17,-9 -7,-9 -16,-1 -28,4 -28,9 0,12 8,12 35,0 z m 59,-51 c -8,-14 -34,-10 -34,5 0,9 7,12 20,9 11,-3 17,-9 14,-14 z m 206,5 c 0,-8 -4,-12 -10,-9 -5,3 -10,10 -10,16 0,5 5,9 10,9 6,0 10,-7 10,-16 z m -40,-28 c 0,-21 -20,-30 -33,-17 -9,9 -8,14 3,21 21,14 30,12 30,-4 z m 75,-6 c -3,-5 -11,-10 -16,-10 -6,0 -7,5 -4,10 3,6 11,10 16,10 6,0 7,-4 4,-10 z m -405,-4 c 0,-3 -4,-8 -10,-11 -5,-3 -10,-1 -10,4 0,6 5,11 10,11 6,0 10,-2 10,-4 z m 210,-6 c 0,-5 -7,-10 -15,-10 -8,0 -15,5 -15,10 0,6 7,10 15,10 8,0 15,-4 15,-10 z m -310,-20 c 0,-5 -2,-10 -4,-10 -3,0 -8,5 -11,10 -3,6 -1,10 4,10 6,0 11,-4 11,-10 z m 390,0 c 0,-5 -4,-10 -10,-10 -5,0 -10,5 -10,10 0,6 5,10 10,10 6,0 10,-4 10,-10 z m -550,-36 c 0,-8 -5,-12 -10,-9 -6,4 -8,11 -5,16 9,14 15,11 15,-7 z m 170,-55 c 0,-9 -31,-21 -37,-15 -3,3 -3,9 1,14 6,10 36,12 36,1 z m -1020,-199 c 0,-5 -4,-10 -10,-10 -5,0 -10,5 -10,10 0,6 5,10 10,10 6,0 10,-4 10,-10 z m -525,-120 c 3,-5 3,-10 -2,-10 -4,0 -19,-3 -33,-6 -24,-6 -25,-6 -5,9 24,19 32,21 40,7 z"
       id="path2" />
    <path
       d="m 11115,12220 c 3,-5 8,-10 11,-10 2,0 4,5 4,10 0,6 -5,10 -11,10 -5,0 -7,-4 -4,-10 z"
       id="path4" />
    <path
       d="m 11002,11886 c -9,-5 -46,-11 -82,-12 -37,-2 -93,-11 -126,-20 -32,-9 -92,-20 -132,-25 -40,-5 -82,-14 -92,-19 -10,-6 -33,-10 -50,-10 -17,0 -41,-5 -53,-12 -12,-6 -35,-11 -51,-10 -15,2 -34,-2 -41,-8 -8,-6 -45,-12 -83,-13 -38,-2 -76,-8 -84,-15 -8,-6 -17,-9 -21,-6 -3,3 -38,-1 -78,-10 -39,-9 -74,-15 -76,-12 -2,2 -19,0 -36,-6 -30,-10 -93,-20 -196,-33 -24,-3 -47,-8 -52,-11 -5,-3 -41,-9 -81,-14 -40,-5 -116,-18 -168,-29 -52,-10 -130,-22 -173,-26 -55,-5 -80,-12 -86,-23 -8,-13 -12,-14 -25,-3 -11,9 -28,11 -53,6 -21,-4 -56,-9 -78,-10 -86,-7 -185,-17 -300,-30 -66,-8 -187,-19 -270,-25 -82,-6 -195,-17 -250,-24 -55,-8 -113,-14 -130,-15 -16,-1 -79,-6 -140,-10 -173,-13 -642,-12 -845,0 -102,7 -207,14 -235,15 -107,7 -304,24 -380,34 -259,32 -476,52 -483,45 -3,-3 -11,0 -18,6 -13,10 -138,28 -254,35 -36,2 -76,8 -90,14 -14,5 -47,12 -75,14 -119,13 -284,34 -430,56 -38,6 -84,12 -100,15 -17,2 -42,6 -55,9 -14,3 -47,8 -75,12 -27,3 -77,10 -110,14 -121,18 -201,29 -245,34 -129,13 -240,28 -279,37 -24,5 -101,13 -171,16 l -127,6 -7,-28 c -13,-50 4,-1368 17,-1382 15,-14 455,-31 602,-23 55,3 120,3 145,-1 25,-4 135,-5 245,-2 110,3 394,6 630,8 237,2 511,6 610,10 191,7 826,18 934,16 35,0 69,3 75,7 6,5 56,5 111,1 55,-4 103,-5 106,-3 3,2 93,6 200,8 280,8 503,17 511,22 4,3 96,7 205,10 109,2 218,7 243,9 25,3 104,5 175,4 168,-2 134,-2 412,3 134,3 245,7 248,10 7,6 166,1 173,-6 3,-3 10,-2 16,4 7,5 27,5 48,1 26,-6 45,-5 64,5 17,9 31,11 38,5 13,-11 276,-9 294,3 7,4 12,3 12,-2 0,-11 231,-9 272,2 14,4 35,3 46,-3 13,-7 31,-7 56,0 28,8 41,7 52,-2 11,-9 20,-9 40,0 20,9 34,9 61,-1 28,-10 36,-10 42,1 6,9 16,11 32,6 33,-11 89,-8 104,5 9,8 15,8 20,0 9,-15 51,-12 65,5 10,12 15,13 28,3 17,-15 172,-20 172,-6 0,12 27,10 50,-4 16,-10 24,-10 40,0 11,6 29,12 40,12 23,0 24,11 6,63 -8,20 -10,40 -5,43 13,7 11,58 -2,71 -8,8 -8,17 0,31 16,30 14,72 -4,72 -8,0 -15,5 -15,10 0,6 5,10 10,10 18,0 12,78 -7,89 -16,9 -16,10 -2,16 15,5 16,22 11,138 -2,73 -9,135 -15,138 -6,4 -5,20 3,43 8,25 9,41 2,49 -6,7 -11,57 -12,112 -1,55 -4,145 -6,200 -3,55 -6,116 -6,135 0,95 -9,140 -27,140 -10,0 -21,3 -25,8 -11,10 -134,9 -154,-2 z"
       id="path6" />
    <path
       d="m 12820,10512 c 0,-5 -26,-9 -57,-9 -101,0 -153,-4 -153,-12 0,-5 -30,-9 -66,-10 -37,-1 -76,-7 -88,-14 -11,-7 -41,-13 -66,-13 -76,-2 -168,-14 -195,-24 -15,-6 -42,-10 -62,-10 -22,0 -41,-6 -48,-16 -10,-14 -17,-15 -48,-5 -26,9 -42,9 -56,2 -11,-6 -36,-11 -56,-11 -41,0 -105,-24 -105,-39 0,-6 -5,-11 -11,-11 -5,0 -7,5 -3,12 5,8 -6,9 -42,3 -27,-4 -78,-9 -112,-11 -35,-3 -73,-9 -83,-15 -11,-5 -29,-7 -39,-4 -11,4 -34,0 -51,-9 -18,-9 -42,-13 -60,-9 -16,3 -35,1 -42,-5 -7,-6 -47,-14 -90,-18 -55,-5 -77,-11 -77,-20 0,-17 -47,-19 -52,-3 -3,9 -10,8 -28,-1 -13,-7 -47,-14 -74,-16 -111,-8 -174,-21 -197,-41 -12,-9 -23,-11 -40,-5 -19,8 -144,-8 -144,-18 0,-1 -20,-4 -45,-6 -97,-8 -123,-12 -130,-24 -5,-8 -18,-10 -34,-6 -23,6 -96,-6 -136,-22 -8,-3 -33,-7 -55,-8 -22,-1 -65,-7 -95,-13 -30,-7 -68,-13 -85,-15 -76,-8 -125,-19 -125,-27 0,-5 -13,-6 -30,-3 -17,4 -36,1 -44,-5 -8,-7 -31,-11 -53,-10 -21,1 -58,-4 -83,-11 -25,-7 -61,-13 -81,-14 -20,-1 -44,-7 -52,-15 -9,-7 -25,-10 -35,-7 -10,4 -50,-1 -88,-9 -67,-15 -224,-41 -294,-50 -19,-2 -75,-11 -125,-20 -49,-9 -130,-22 -180,-29 -128,-20 -215,-36 -251,-47 -17,-5 -44,-9 -60,-9 -30,0 -127,-17 -254,-44 -161,-34 -423,-57 -639,-57 -115,0 -227,4 -248,10 -21,5 -94,15 -163,21 -69,6 -139,15 -156,21 -17,5 -43,9 -58,9 -15,0 -46,4 -69,9 -23,5 -76,14 -117,20 -198,27 -369,54 -490,75 -47,8 -125,19 -175,25 -49,6 -126,17 -170,24 -44,8 -116,18 -160,22 -44,3 -100,13 -125,21 -25,7 -92,18 -150,24 -58,5 -132,14 -165,19 -33,5 -85,12 -115,16 -86,10 -171,23 -225,34 -59,13 -306,48 -460,67 -60,7 -135,18 -165,23 -30,6 -104,15 -165,21 -60,6 -124,15 -142,21 -29,9 -213,36 -308,44 -22,2 -74,11 -115,19 -41,9 -102,18 -135,21 -33,3 -76,10 -95,15 -19,4 -96,16 -170,25 -122,15 -289,41 -425,65 -27,5 -88,14 -135,20 -47,6 -99,16 -116,21 -17,5 -39,7 -48,3 -9,-3 -34,1 -56,10 -39,16 -40,15 -70,-12 -36,-33 -37,-44 -26,-432 10,-355 16,-855 14,-1040 -2,-80 -2,-188 -1,-240 1,-52 4,-475 7,-940 3,-465 7,-1131 10,-1480 3,-349 8,-986 12,-1415 4,-435 11,-788 16,-797 5,-11 20,-18 38,-18 16,0 31,-4 34,-9 3,-4 36,-11 73,-14 38,-4 82,-9 98,-12 17,-3 59,-7 95,-8 36,-2 72,-7 80,-12 8,-5 37,-8 65,-8 27,1 53,-1 58,-4 4,-2 39,-6 77,-8 39,-3 79,-9 90,-15 10,-5 25,-8 32,-5 7,3 45,1 83,-5 83,-12 211,-28 278,-35 26,-3 66,-9 90,-15 36,-8 181,-27 272,-35 17,-2 71,-8 120,-14 50,-7 128,-16 175,-22 47,-6 135,-17 195,-24 61,-8 153,-19 205,-24 52,-5 120,-12 150,-16 30,-3 75,-7 100,-9 25,-2 59,-6 75,-9 36,-8 64,-11 260,-32 201,-22 218,-27 245,-72 12,-20 26,-60 30,-89 8,-50 15,-80 46,-189 7,-27 16,-63 20,-80 4,-16 22,-66 41,-110 18,-44 33,-83 33,-87 0,-5 15,-32 34,-61 18,-28 46,-74 61,-100 35,-64 167,-191 219,-212 22,-10 65,-28 94,-42 65,-30 149,-44 262,-46 180,-2 230,5 335,42 101,37 196,112 323,258 35,41 38,43 72,33 25,-7 47,-25 74,-60 100,-131 261,-230 412,-253 115,-18 332,-6 426,22 127,38 156,57 285,188 l 122,123 39,-15 c 22,-9 52,-33 68,-53 44,-55 136,-143 164,-156 14,-6 47,-24 73,-40 60,-36 199,-67 292,-67 101,0 246,16 274,29 20,8 49,17 64,18 28,2 97,31 107,44 3,3 25,22 50,41 59,44 200,199 200,218 0,5 11,22 24,38 13,16 29,47 35,70 6,23 25,67 41,98 17,32 30,67 30,79 0,12 4,26 8,32 5,5 14,36 21,69 7,33 17,74 23,90 5,17 13,62 18,100 14,113 20,139 34,153 12,13 159,32 266,36 30,1 60,5 67,9 6,4 39,9 73,12 34,2 69,10 77,16 11,10 16,10 22,0 7,-10 13,-10 30,-1 12,6 50,11 84,12 34,0 67,4 72,8 11,8 104,21 147,21 15,0 30,4 33,10 4,5 11,7 16,3 5,-3 17,0 25,7 8,6 17,9 21,6 3,-4 13,-1 21,6 12,9 16,9 19,0 5,-14 31,-17 57,-7 9,3 13,10 10,16 -3,5 14,8 43,7 26,-1 79,4 117,10 38,7 92,12 121,12 30,1 66,8 81,15 17,9 39,12 56,8 16,-3 35,-1 42,5 7,6 40,13 73,16 33,3 82,9 109,14 27,5 52,7 57,4 4,-2 14,1 23,7 8,7 28,10 47,7 23,-3 39,1 56,14 13,10 26,17 30,15 3,-2 56,2 116,10 61,8 130,18 155,21 25,3 50,9 55,14 6,4 42,11 80,15 39,4 75,11 82,16 7,6 18,6 29,0 11,-6 26,-4 46,5 16,9 42,13 56,10 15,-3 38,1 52,8 14,8 53,14 87,15 41,0 65,5 70,14 7,12 30,16 153,30 65,7 115,19 122,30 4,6 5,49 1,96 -3,47 -7,108 -8,135 -6,113 -15,775 -20,1465 -4,404 -8,832 -11,950 -3,118 -4,261 -4,318 1,67 -3,108 -11,118 -8,10 -8,14 0,14 7,0 11,33 11,100 0,84 -3,101 -17,109 -16,9 -16,10 -2,16 13,5 15,20 13,83 -2,42 -4,128 -3,190 0,80 -3,112 -12,112 -8,0 -9,3 0,13 7,10 10,75 8,201 -2,174 -3,189 -22,203 l -20,15 20,-4 c 17,-3 20,2 18,37 -1,22 -2,49 -2,60 2,36 2,59 0,85 0,14 -1,79 0,145 0,66 -3,128 -7,139 -4,10 -3,26 2,35 6,9 7,34 3,56 -4,22 -5,50 -2,63 8,36 -6,90 -25,95 -14,4 -13,6 6,12 26,9 29,37 7,79 -18,34 -19,47 -3,43 18,-3 20,129 2,144 -17,14 -18,30 -1,26 8,-1 12,13 13,46 0,33 -3,47 -13,47 -16,0 -17,12 -2,27 14,14 13,267 -1,271 -13,5 -13,32 0,32 15,0 13,263 -2,278 -8,8 -8,12 -1,12 5,0 9,10 8,23 -1,12 -3,30 -4,40 0,9 -8,17 -18,17 -14,0 -14,2 3,21 16,18 18,38 19,160 0,124 -2,139 -17,139 -9,0 -20,5 -23,10 -7,12 -45,13 -45,2 z m -80,-52 c 0,-5 -5,-10 -11,-10 -5,0 -7,5 -4,10 3,6 8,10 11,10 2,0 4,-4 4,-10 z m -105,-110 c 3,-5 1,-10 -4,-10 -6,0 -11,5 -11,10 0,6 2,10 4,10 3,0 8,-4 11,-10 z m 205,-190 c 0,-5 -4,-10 -10,-10 -5,0 -10,5 -10,10 0,6 5,10 10,10 6,0 10,-4 10,-10 z m -1845,-10 c 3,-5 1,-10 -4,-10 -6,0 -11,5 -11,10 0,6 2,10 4,10 3,0 8,-4 11,-10 z m 1890,-139 c 3,-5 1,-12 -5,-16 -5,-3 -10,1 -10,9 0,18 6,21 15,7 z m -503,-133 c -2,-10 0,-18 4,-18 5,0 8,-82 6,-182 -2,-135 1,-184 10,-189 9,-6 8,-12 -4,-26 -13,-15 -15,-26 -8,-57 4,-21 6,-53 3,-72 -3,-19 -1,-34 4,-34 5,0 15,-12 22,-26 10,-23 10,-26 -5,-20 -8,3 -19,4 -24,1 -7,-5 7,-57 23,-81 4,-7 0,-14 -8,-18 -19,-7 -19,-29 1,-68 15,-29 15,-32 0,-43 -20,-15 -20,-39 0,-59 14,-15 14,-18 -5,-42 -19,-24 -19,-54 0,-54 5,0 9,-11 9,-25 0,-14 -4,-25 -10,-25 -15,0 -12,-22 6,-59 15,-30 15,-33 -2,-46 -16,-11 -16,-17 -6,-39 9,-20 9,-33 1,-47 -6,-12 -8,-37 -4,-60 4,-25 3,-39 -4,-39 -14,0 -14,-37 -1,-42 6,-2 13,-21 17,-42 4,-27 3,-37 -5,-32 -5,3 -12,0 -15,-6 -5,-18 3,-48 14,-48 14,0 10,-30 -6,-47 -10,-10 -12,-19 -7,-27 5,-6 12,-36 14,-66 3,-30 8,-62 12,-71 4,-9 -2,-25 -14,-39 -22,-26 -25,-36 -10,-45 5,-3 9,-31 8,-62 -1,-36 3,-58 10,-61 17,-5 15,-22 -2,-22 -22,0 -26,-47 -5,-72 14,-16 16,-24 8,-34 -6,-8 -16,-11 -21,-8 -12,7 -3,-28 15,-65 9,-19 9,-25 0,-28 -18,-6 -16,-58 2,-77 8,-8 15,-17 15,-20 0,-3 -7,-6 -15,-6 -26,0 -26,-136 0,-173 8,-12 15,-26 15,-32 0,-5 -5,-2 -11,8 -6,9 -14,15 -20,12 -13,-9 -11,-36 6,-69 19,-35 19,-33 -5,-39 -18,-4 -19,-9 -10,-33 6,-15 8,-34 5,-42 -4,-12 -3,-13 10,-2 12,10 15,10 15,-3 0,-8 6,-17 13,-20 7,-3 5,-8 -8,-13 -29,-11 -36,-26 -21,-44 24,-28 26,-49 5,-55 -23,-8 -25,-34 -4,-61 19,-25 19,-34 0,-34 -21,0 -19,-49 2,-73 17,-18 17,-19 0,-28 -20,-12 -22,-46 -3,-68 7,-9 16,-29 20,-46 6,-27 5,-28 -7,-12 -8,9 -17,17 -21,17 -4,0 -6,-63 -4,-140 3,-111 6,-143 18,-150 13,-8 13,-10 -1,-10 -14,0 -17,-14 -18,-92 -1,-94 -1,-254 0,-273 0,-5 -2,-44 -4,-85 -4,-52 -1,-83 9,-102 18,-36 18,-49 -2,-41 -14,5 -16,2 -10,-23 5,-16 8,-65 7,-109 0,-44 -1,-136 -1,-205 0,-69 0,-136 -1,-150 0,-14 -1,-54 -2,-90 -2,-36 0,-74 4,-85 3,-11 3,-31 -2,-45 -4,-14 -10,-53 -13,-87 -4,-47 -2,-66 9,-77 17,-16 20,-30 5,-21 -6,4 -9,-68 -8,-203 2,-183 0,-212 -15,-235 -14,-22 -22,-25 -46,-21 -16,4 -32,1 -35,-5 -4,-6 -18,-11 -31,-11 -13,0 -27,-5 -30,-10 -3,-5 -30,-10 -60,-10 -44,0 -57,-4 -70,-22 -14,-21 -17,-21 -25,-6 -10,17 -36,16 -77,-4 -17,-8 -26,-8 -38,2 -13,11 -19,10 -36,-6 -12,-11 -34,-18 -54,-17 -25,1 -35,-3 -35,-14 0,-10 -5,-13 -17,-8 -40,16 -53,17 -59,2 -4,-11 -22,-15 -71,-15 -51,0 -73,-5 -94,-21 -24,-18 -32,-19 -48,-9 -16,10 -25,9 -45,-1 -13,-8 -32,-11 -42,-7 -10,4 -20,2 -24,-4 -3,-5 -25,-11 -49,-13 -34,-2 -43,-6 -47,-24 -7,-26 -24,-31 -24,-8 0,18 -31,20 -48,3 -6,-6 -33,-11 -61,-9 -28,1 -52,-3 -56,-9 -5,-7 -22,-9 -49,-5 -29,4 -37,3 -26,-4 12,-8 12,-13 3,-22 -10,-10 -18,-10 -38,1 -19,10 -30,11 -50,2 -14,-7 -39,-12 -55,-12 -16,0 -40,-5 -54,-11 -18,-9 -29,-9 -39,-1 -13,11 -39,2 -38,-14 0,-5 -17,-8 -38,-6 -22,2 -42,-2 -46,-7 -3,-6 -21,-11 -38,-11 -18,0 -44,-6 -59,-14 -15,-8 -30,-10 -35,-5 -5,5 -39,1 -81,-11 -39,-11 -86,-20 -103,-20 -18,0 -37,-7 -44,-16 -9,-13 -16,-14 -31,-6 -13,7 -26,7 -35,1 -7,-5 -27,-9 -42,-9 -16,0 -38,-5 -50,-12 -12,-7 -34,-11 -49,-9 -14,1 -29,-2 -33,-8 -11,-19 -39,-11 -75,22 l -35,33 v 289 c -1,289 -13,1371 -21,1770 -2,116 -4,217 -3,225 4,78 -7,659 -13,665 -3,3 -16,7 -29,9 -13,1 -38,10 -54,18 -21,11 -58,17 -113,17 -70,0 -92,-4 -145,-28 l -62,-28 2,-54 c 1,-30 2,-115 1,-189 0,-74 0,-142 0,-150 1,-8 3,-226 6,-485 9,-933 13,-1121 20,-1133 4,-7 4,-17 1,-22 -4,-6 -7,-46 -7,-88 0,-42 0,-174 0,-292 0,-118 0,-240 -1,-270 0,-30 1,-104 2,-163 2,-124 -17,-384 -30,-409 -5,-9 -9,-26 -9,-37 0,-27 -50,-180 -61,-187 -5,-3 -9,-13 -9,-22 0,-18 -61,-105 -108,-155 -33,-35 -104,-77 -131,-77 -11,0 -22,-4 -25,-9 -14,-23 -185,-17 -234,8 -9,5 -34,17 -55,27 -47,23 -122,95 -144,138 -8,17 -21,38 -28,46 -21,23 -63,156 -80,252 -14,74 -17,222 -20,990 -3,497 -7,1038 -11,1203 -3,165 -5,306 -5,313 3,32 3,69 -2,400 -4,244 -9,357 -17,367 -6,8 -43,24 -82,36 -107,33 -215,23 -318,-30 -29,-15 -28,44 -16,-1056 15,-1302 18,-1502 22,-1525 2,-14 4,-162 4,-330 1,-294 0,-309 -24,-407 -52,-208 -143,-352 -259,-410 -82,-41 -107,-47 -202,-46 -69,0 -89,5 -147,32 -64,31 -120,75 -145,116 -7,11 -25,40 -39,63 -35,57 -73,151 -74,180 0,13 -5,32 -11,43 -5,11 -12,39 -14,62 -2,23 -8,98 -15,167 -6,69 -13,314 -15,545 -11,1140 -16,1687 -19,2081 -3,342 -7,435 -17,453 -8,12 -34,32 -59,44 -90,44 -308,17 -340,-43 -5,-9 -7,-68 -5,-131 2,-63 7,-323 10,-579 3,-256 8,-717 12,-1025 16,-1293 10,-1526 -40,-1670 -24,-71 -95,-210 -117,-231 -102,-98 -178,-128 -322,-125 -67,2 -131,27 -190,73 -64,51 -102,92 -135,144 -31,48 -95,196 -91,212 2,11 -12,65 -23,85 -5,10 -7,21 -5,26 3,4 1,35 -4,67 -5,32 -12,122 -15,199 -3,77 -8,208 -11,290 -4,83 -6,155 -6,160 2,28 0,304 -3,485 -2,173 -11,915 -20,1705 -1,110 -3,226 -4,257 l -1,57 -56,27 c -53,25 -63,26 -154,21 -99,-5 -161,-24 -187,-57 -10,-11 -12,-72 -8,-250 3,-129 7,-449 10,-710 3,-261 8,-650 10,-865 6,-469 13,-844 21,-981 5,-99 5,-101 -22,-133 -29,-35 -30,-35 -199,-15 -22,3 -56,7 -75,9 -19,1 -60,7 -90,13 -105,19 -245,40 -315,47 -78,8 -74,7 -240,35 -66,11 -165,25 -220,31 -55,6 -108,15 -117,20 -10,5 -31,9 -46,9 -16,0 -32,3 -35,7 -4,3 -19,8 -34,9 -16,2 -56,6 -91,10 -34,3 -65,10 -68,15 -3,5 -20,9 -38,9 -18,0 -36,3 -39,6 -4,4 -21,8 -39,9 -18,1 -62,8 -98,14 -36,7 -83,12 -105,12 -22,0 -58,5 -80,11 -22,6 -51,11 -65,13 -191,18 -279,43 -305,88 -44,72 -50,118 -60,422 -2,61 -7,180 -10,265 -4,85 -8,441 -9,790 -2,350 -5,641 -8,646 -4,5 -9,56 -12,114 -3,58 -9,146 -13,195 -4,50 -6,108 -4,130 2,22 3,47 2,55 0,8 -2,166 -4,350 -3,184 -8,351 -12,371 -4,23 -3,39 4,44 6,3 8,11 5,17 -4,6 -6,64 -5,130 1,79 -2,125 -10,134 -9,11 -9,14 1,14 9,0 10,55 5,238 -4,130 -9,309 -11,397 -1,88 -6,266 -9,395 -15,575 -17,516 13,545 17,17 31,23 41,18 9,-4 36,-8 61,-9 25,-1 65,-7 90,-13 38,-9 148,-22 385,-46 22,-2 62,-8 89,-13 28,-6 65,-8 83,-5 22,4 33,2 33,-6 0,-8 11,-10 34,-6 23,5 44,1 66,-10 24,-12 35,-14 40,-5 5,9 17,9 48,1 43,-12 159,-30 232,-36 25,-2 72,-8 105,-14 33,-6 132,-18 220,-27 88,-8 169,-19 180,-24 11,-5 52,-11 90,-14 88,-8 144,-15 220,-27 83,-13 200,-27 330,-39 129,-13 143,-14 215,-28 30,-5 64,-10 75,-10 31,0 459,-53 575,-72 36,-5 88,-12 115,-15 69,-7 188,-23 260,-35 33,-6 80,-13 105,-15 143,-14 176,-19 187,-27 7,-6 88,-19 180,-29 93,-10 197,-23 233,-29 36,-6 85,-12 110,-15 25,-2 79,-8 120,-12 137,-13 376,3 406,28 8,6 27,8 43,4 17,-4 36,-3 43,2 7,4 27,9 43,10 88,7 124,11 135,18 12,8 13,8 155,25 55,7 104,17 110,21 5,5 27,9 50,9 22,0 60,5 85,11 25,6 65,13 90,15 99,8 132,13 145,24 7,6 49,12 93,13 54,1 78,6 75,13 -3,8 18,11 69,10 40,-2 89,3 108,10 48,17 165,35 227,34 18,0 35,5 38,10 3,6 26,10 50,10 24,0 47,5 50,10 3,6 19,10 35,10 35,0 61,10 55,20 -3,5 11,3 31,-3 31,-9 37,-9 46,6 7,13 13,15 28,7 28,-15 60,-12 60,6 0,10 6,14 18,10 50,-15 70,-17 76,-7 4,6 24,11 46,11 24,0 40,5 43,14 5,12 13,13 38,6 22,-7 37,-6 46,1 7,7 26,9 43,6 20,-4 34,-1 45,9 12,12 26,15 60,9 27,-4 45,-2 45,4 0,5 34,12 75,16 41,4 82,13 92,20 12,9 25,10 45,3 20,-7 33,-7 43,2 8,7 29,10 47,7 21,-3 39,1 49,9 9,8 47,17 85,19 38,3 98,10 134,16 36,5 74,10 85,10 11,1 49,8 85,17 36,8 78,14 94,13 15,-1 34,4 42,10 8,6 26,8 44,4 21,-5 39,-2 56,9 17,12 29,14 42,7 20,-11 100,7 125,27 10,9 17,10 22,2 8,-13 62,-13 71,1 4,7 22,9 45,6 27,-3 42,0 50,10 9,10 23,13 44,9 17,-4 35,-3 39,1 8,8 39,12 121,16 28,1 53,7 57,12 7,9 74,16 152,16 16,0 35,4 42,10 7,5 23,7 37,4 15,-4 30,-1 37,7 10,10 43,14 120,14 98,0 107,-1 102,-18 z m 108,-398 c 0,-5 -5,-10 -11,-10 -5,0 -7,5 -4,10 3,6 8,10 11,10 2,0 4,-4 4,-10 z m 280,-250 c 0,-5 -4,-10 -10,-10 -5,0 -10,5 -10,10 0,6 5,10 10,10 6,0 10,-4 10,-10 z m 100,-94 c 0,-3 -4,-8 -10,-11 -5,-3 -10,-1 -10,4 0,6 5,11 10,11 6,0 10,-2 10,-4 z m -10,-216 c 0,-5 -7,-7 -15,-4 -8,4 -12,10 -9,15 6,11 24,2 24,-11 z m -403,-12 c -3,-8 -6,-5 -6,6 -1,11 2,17 5,13 3,-3 4,-12 1,-19 z m 38,-18 c 3,-5 1,-10 -4,-10 -6,0 -11,5 -11,10 0,6 2,10 4,10 3,0 8,-4 11,-10 z m -45,-80 c 0,-5 -5,-10 -11,-10 -5,0 -7,5 -4,10 3,6 8,10 11,10 2,0 4,-4 4,-10 z m 430,-100 c 0,-5 -7,-10 -15,-10 -8,0 -15,5 -15,10 0,6 7,10 15,10 8,0 15,-4 15,-10 z m -360,-560 c 0,-5 -4,-10 -9,-10 -6,0 -13,5 -16,10 -3,6 1,10 9,10 9,0 16,-4 16,-10 z m -24,-307 c -10,-10 -19,5 -10,18 6,11 8,11 12,0 2,-7 1,-15 -2,-18 z m 199,-163 c 3,-5 1,-10 -4,-10 -6,0 -11,5 -11,10 0,6 2,10 4,10 3,0 8,-4 11,-10 z"
       id="path8" />
    <path
       d="m 7947,2214 c -1,-1 -251,-4 -555,-7 -564,-6 -582,-8 -582,-44 0,-14 37,-69 98,-144 17,-23 32,-46 32,-53 0,-14 118,-193 166,-252 19,-23 34,-44 34,-47 0,-14 77,-137 120,-193 26,-33 63,-90 82,-126 20,-36 45,-76 57,-89 11,-12 21,-27 21,-33 0,-5 18,-31 40,-57 22,-26 40,-51 40,-54 0,-10 92,-149 147,-224 27,-34 62,-88 79,-120 17,-31 37,-56 44,-56 15,0 98,116 130,180 11,22 38,65 60,95 58,80 100,145 155,235 27,44 63,98 81,120 17,22 52,76 78,120 25,44 68,112 95,150 27,39 68,102 92,140 57,94 170,267 197,300 4,6 14,26 22,45 8,19 20,40 27,45 8,6 15,24 16,40 l 2,30 h -388 c -214,0 -389,-1 -390,-1 z"
       id="path10" />
  </g>
</svg>
