<svg width="585" height="663" viewBox="0 0 585 663" fill="none" xmlns="http://www.w3.org/2000/svg">
<path d="M283 0.456115C281.277 0.65882 279.097 1.21626 278.235 1.67235C277.271 2.12844 276.511 2.22979 276.308 1.97641C276.055 1.52032 271.745 2.17911 266.168 3.54738C264.901 3.85144 263.329 4.05414 262.619 4.00347C261.96 3.95279 260.237 4.25685 258.817 4.66226C255.522 5.57444 253.291 5.97985 250.198 6.33458C248.829 6.48661 247.207 6.84134 246.649 7.1454C246.092 7.44946 243.81 7.95622 241.579 8.31096C233.417 9.62855 220.286 12.2637 220.134 12.6691C220.032 12.8718 218.968 13.0745 217.802 13.0745C216.636 13.0745 215.47 13.2772 215.216 13.5306C214.912 13.784 213.695 14.0881 212.428 14.2401C211.16 14.3415 209.589 14.6455 208.879 14.8482C208.169 15.0509 206.597 15.355 205.33 15.4563C204.062 15.6084 202.795 15.9631 202.44 16.2165C202.085 16.4699 201.629 16.5712 201.325 16.4192C200.868 16.1151 198.181 16.5712 188.599 18.5983C185.963 19.2064 180.69 20.2706 176.939 21.0814C169.942 22.5004 168.624 22.9565 169.08 23.7166C169.232 23.97 169.08 24.3247 168.776 24.5274C168.472 24.6794 168.016 24.5274 167.762 24.1727C167.458 23.6152 166.951 23.6152 165.024 24.122C163.757 24.4767 161.374 24.7301 159.701 24.7301C157.977 24.7301 156.152 25.0342 155.493 25.4396C154.885 25.7943 152.552 26.4024 150.322 26.7065C145.252 27.5173 141.449 28.2775 140.435 28.7842C139.979 29.0376 138.205 29.3417 136.38 29.5444C134.605 29.6964 132.729 30.1018 132.222 30.3552C131.665 30.6593 130.904 30.8113 130.397 30.7606C128.724 30.6086 128.268 30.8113 128.268 31.6728C128.268 32.3823 128.166 32.4329 127.812 31.8755C127.507 31.4194 126.95 31.2674 126.189 31.5208C125.53 31.7235 122.59 32.2809 119.649 32.8384C111.081 34.46 108.799 34.9668 107.887 35.4229C107.38 35.6762 106.163 35.8789 105.149 35.8789C103.476 35.8789 98.7611 36.8418 95.0094 37.9567C94.1475 38.2101 92.9815 38.4128 92.4238 38.4128C91.8661 38.4128 89.6354 38.8689 87.4046 39.4263C85.2246 40.0344 82.3854 40.5412 81.118 40.6425C78.5323 40.8452 74.2229 41.8588 72.8541 42.5682C72.3471 42.8216 71.7387 42.8723 71.5359 42.7203C71.1303 42.5176 63.5255 43.9872 57.0361 45.6088C55.9207 45.8622 53.1323 46.4196 50.8508 46.7744C48.5187 47.1798 44.3614 47.9399 41.6237 48.4974C38.8352 49.1055 36.0975 49.5616 35.5398 49.5616C34.9821 49.5616 34.2216 49.8656 33.8668 50.2204C33.5119 50.5244 32.5486 50.8792 31.6867 50.9298C28.0364 51.1326 20.7865 52.2981 20.7865 52.7035C20.7865 52.9569 20.3302 53.0076 19.7725 52.8556C19.1641 52.6528 18.7585 52.7542 18.7585 53.1089C18.7585 53.413 18.1501 53.6664 17.3897 53.565C16.5785 53.5143 15.6152 53.565 15.2096 53.7171C14.804 53.8691 13.1817 54.2745 11.6607 54.6292C10.1397 54.984 8.61878 55.4401 8.36529 55.6934C7.65551 56.2509 3.44751 57.6698 2.48424 57.6698C1.26747 57.6698 0 59.3421 0 60.9638C0 62.9402 4.25869 66.9943 5.83035 66.5382C6.38804 66.3862 7.24992 66.0821 7.75691 65.9301C8.36529 65.7274 8.61878 65.9301 8.61878 66.5382C8.61878 67.197 8.92298 67.349 9.88625 67.0956C10.7481 66.8929 11.1537 66.9943 11.2044 67.3997C11.2044 67.7544 11.4072 67.5517 11.7114 66.8929C12.2691 65.474 13.3338 65.9301 12.8775 67.3997C12.624 68.3119 12.7254 68.4132 13.8915 68.1092C14.6519 67.9065 15.7166 68.0585 16.3757 68.4132C16.9841 68.7173 18.3529 68.92 19.4176 68.8693C20.4823 68.8186 21.6991 69.0213 22.1046 69.3761C22.713 69.8322 23.1186 69.8322 24.0819 69.3254C25.0959 68.768 25.6029 68.768 26.5154 69.2747C27.1238 69.5788 28.2392 69.9335 28.949 70.0349C29.6081 70.0855 30.4699 70.2883 30.7741 70.491C31.0783 70.6937 33.157 70.947 35.3877 71.0484C37.872 71.2004 39.8999 71.5552 40.6097 72.0619C41.2688 72.4673 42.4348 72.7714 43.246 72.67C44.0065 72.5687 44.6149 72.67 44.6149 72.8728C44.6149 73.0755 45.4768 73.3795 46.5414 73.4809C47.5554 73.6329 48.8229 73.8863 49.3299 74.089C49.9383 74.393 50.1917 74.2917 50.1917 73.7342C50.1917 73.0755 50.5466 73.1261 52.7774 73.937C55.0588 74.7985 55.5151 74.8491 56.2249 74.241C57.1882 73.3795 58.3035 73.6329 58.3035 74.6971C58.3035 75.1532 58.8612 75.4066 60.0273 75.4066C60.9906 75.4066 61.9032 75.6093 62.1059 75.8627C62.258 76.116 63.1706 76.2174 64.1846 76.0654C65.1986 75.9133 66.1618 76.0147 66.3646 76.2681C66.7702 76.9269 69.6601 77.6363 69.2545 76.9775C68.6461 76.0654 70.0149 75.812 71.2317 76.6228C71.9415 77.0789 73.9187 77.5857 75.6425 77.7377C77.6705 77.9404 79.09 78.3458 79.4956 78.9032C79.9012 79.41 80.2561 79.5114 80.5096 79.1566C81.1687 78.1938 82.7403 77.8897 83.6022 78.5992C84.819 79.6127 88.52 80.6262 89.7875 80.3222C90.4465 80.1702 91.207 80.2208 91.5619 80.5249C91.9168 80.7783 93.1843 81.133 94.401 81.285C95.5671 81.3864 97.1895 81.7411 97.9499 82.0452C98.7104 82.3492 99.8765 82.5013 100.586 82.2986C101.245 82.1465 102.614 82.3492 103.628 82.7547C104.591 83.1601 106.214 83.5148 107.228 83.5148C108.191 83.5148 111.081 83.8695 113.565 84.3256C116.1 84.731 118.382 84.9337 118.635 84.7817C118.939 84.6297 119.142 84.6804 119.142 84.9337C119.142 85.4912 121.88 85.9979 126.544 86.2513C128.268 86.3527 130.194 86.7581 130.853 87.1128C131.513 87.4676 132.983 87.8223 134.098 87.9237C140.131 88.2784 145.252 89.0385 145.404 89.596C145.505 89.9 146.418 90.1027 147.432 90.1027C149.358 90.1027 155.138 91.2176 156.862 91.9271C157.673 92.2312 157.774 92.1298 157.521 91.4203C157.217 90.6602 157.318 90.5588 158.028 90.8629C161.729 92.3832 164.822 93.042 170.094 93.346C172.781 93.4981 181.856 94.8663 185.456 95.6772C186.622 95.9812 188.396 96.1839 189.36 96.1839C190.272 96.1839 191.236 96.3866 191.388 96.6907C191.54 96.9441 192.655 97.1974 193.821 97.1974C194.987 97.1974 198.029 97.5522 200.513 98.0083C203.048 98.4644 206.445 98.9711 208.118 99.0725C209.791 99.2245 211.566 99.6299 212.073 99.9846C212.732 100.441 213.492 100.491 214.608 100.187C215.672 99.8833 216.281 99.934 216.382 100.238C216.484 100.491 217.903 100.745 219.526 100.745C221.452 100.745 222.669 100.998 223.074 101.505C223.48 102.012 224.342 102.164 225.964 102.012C227.181 101.91 228.854 102.062 229.564 102.366C230.324 102.671 231.44 102.873 232.099 102.823C232.758 102.823 233.721 103.025 234.228 103.279C234.786 103.583 236.966 103.937 239.146 104.089C241.326 104.241 243.303 104.546 243.607 104.85C243.861 105.103 244.976 105.306 246.142 105.306C247.258 105.306 248.779 105.66 249.539 106.015C250.756 106.674 251.009 106.674 251.364 106.015C251.77 105.306 252.023 105.306 253.798 106.066C255.065 106.573 255.826 106.674 255.927 106.319C256.029 106.066 256.333 105.812 256.586 105.812C256.89 105.812 256.941 106.015 256.789 106.319C256.586 106.623 257.195 106.877 258.158 106.927C261.301 107.079 261.555 107.13 261.91 107.485C262.112 107.687 263.38 107.839 264.698 107.839C266.016 107.839 267.233 108.042 267.385 108.245C267.537 108.448 268.602 108.65 269.819 108.6C271.035 108.549 272.658 108.802 273.52 109.157C274.432 109.512 275.345 109.613 275.852 109.36C276.359 109.056 277.626 109.208 279.147 109.664C280.516 110.069 282.189 110.373 282.899 110.272C283.609 110.221 284.42 110.323 284.775 110.525C285.586 111.032 296.385 110.525 297.551 109.917C298.058 109.613 301.049 109.157 304.243 108.802C307.437 108.498 310.378 108.042 310.783 107.839C311.189 107.637 312.913 107.282 314.586 107.079C316.259 106.927 318.084 106.674 318.591 106.623C319.149 106.573 319.706 106.218 319.808 105.914C319.909 105.61 320.669 105.508 321.633 105.66C322.596 105.812 323.458 105.711 323.661 105.407C323.863 105.103 324.776 105.002 325.739 105.154C327.007 105.356 327.818 105.204 328.477 104.596C328.984 104.089 329.745 103.887 330.252 104.089C330.759 104.292 331.62 104.191 332.229 103.887C332.837 103.583 334.358 103.228 335.626 103.076C339.631 102.62 344.143 101.809 345.258 101.353C345.664 101.201 346.475 101.049 347.033 100.998C349.618 100.897 354.384 100.086 354.384 99.7819C354.384 99.5792 355.297 99.5286 356.412 99.6299C357.629 99.7819 358.896 99.5286 359.606 99.1231C360.975 98.211 363.611 97.6535 366.146 97.7042C367.16 97.7042 368.174 97.5015 368.326 97.1974C368.529 96.8427 369.29 96.7414 370.101 96.9441C371.165 97.1974 371.824 96.9947 372.534 96.2853C373.143 95.6772 373.751 95.4744 374.005 95.7278C374.258 95.9812 375.171 95.9305 376.185 95.6265C377.148 95.3731 378.466 95.0184 379.074 94.9677C379.733 94.8663 380.545 94.5116 380.95 94.2075C381.457 93.7514 382.218 93.7008 383.435 94.0555C384.702 94.4102 385.513 94.3596 386.527 93.8021C387.288 93.3967 389.062 92.9913 390.532 92.8393C392.003 92.6872 393.929 92.1805 394.892 91.7751C396.109 91.2176 396.667 91.1669 396.971 91.5724C397.377 92.2312 398.999 91.7751 398.999 91.0149C398.999 90.7109 399.709 90.6095 400.824 90.8629C402.244 91.1163 402.801 90.9642 403.308 90.3054C403.866 89.4946 404.069 89.4946 404.779 90.0521C405.488 90.6602 405.793 90.6095 406.756 89.6467C408.023 88.5318 409.139 88.2277 409.139 89.0892C409.139 89.9507 410.812 89.6467 412.029 88.5318C412.941 87.6196 413.296 87.5182 413.904 88.025C414.665 88.6838 417.251 88.2784 417.251 87.5182C417.251 87.2649 418.011 87.0622 418.924 87.0622C419.836 87.0622 420.85 86.8088 421.154 86.5047C421.56 86.0993 421.966 86.15 422.726 86.6061C423.588 87.1128 423.943 87.0622 425.109 86.15C425.869 85.5419 426.731 85.1871 427.086 85.3898C427.39 85.5925 428.201 85.8459 428.861 85.9473C429.925 86.0993 430.027 85.9979 429.418 85.3392C428.861 84.6297 429.063 84.5283 431.041 84.5283C432.257 84.5283 433.525 84.275 433.88 83.9202C434.336 83.4641 434.64 83.4641 435.097 83.9202C435.908 84.731 437.479 84.6804 437.784 83.8695C437.936 83.5148 438.95 83.2107 440.116 83.2107C441.282 83.1601 442.346 82.9067 442.549 82.6533C442.701 82.3492 443.31 82.1972 443.867 82.2986C444.374 82.3999 445.135 82.1972 445.439 81.9438C445.794 81.6905 446.25 81.4877 446.453 81.5384C446.707 81.5891 447.011 81.5891 447.163 81.5384C447.619 81.3864 451.928 80.9303 453.247 80.9303C453.956 80.9303 455.832 80.4235 457.404 79.8661C459.483 79.106 460.902 78.9032 462.372 79.1566C463.995 79.41 464.4 79.3087 464.4 78.7005C464.4 77.7884 466.479 77.687 467.341 78.5485C467.746 78.9539 468.101 78.9539 468.558 78.5992C468.913 78.2951 470.079 78.0417 471.194 78.0417C472.259 77.9911 473.475 77.687 473.932 77.3323C474.337 76.9775 475.098 76.7242 475.655 76.8255C476.162 76.9269 476.72 76.6228 476.872 76.1667C477.176 75.4572 477.633 75.3559 479.458 75.66C480.928 75.8627 481.942 75.7613 482.449 75.4066C482.804 75.0518 483.615 74.8998 484.173 75.0518C484.68 75.2039 485.39 75.0012 485.745 74.5957C486.099 74.1397 487.316 73.8863 488.837 73.8863C490.206 73.8863 491.828 73.6329 492.386 73.3288C493.096 72.9234 493.552 72.9234 493.958 73.3288C494.313 73.6836 494.921 73.5315 495.884 72.8221C497.152 71.9099 497.355 71.9099 497.76 72.67C498.115 73.2782 498.419 73.3795 499.18 72.9741C500.194 72.4167 501.917 71.7072 502.526 71.6565C502.678 71.6058 502.982 71.4538 503.185 71.3018C503.337 71.0991 504.503 71.0991 505.72 71.2511C507.342 71.4031 508.001 71.3018 508.001 70.8457C508.001 70.4403 508.559 70.2883 509.674 70.491C510.536 70.5923 511.854 70.491 512.564 70.1869C513.274 69.9335 514.136 69.6295 514.491 69.5281C514.896 69.4774 515.657 68.9707 516.164 68.5146C517.026 67.7544 517.381 67.7038 518.141 68.2105C519.51 69.072 521.183 68.9707 521.183 68.0585C521.183 67.6531 521.639 67.2983 522.197 67.2983C522.755 67.2983 523.211 67.501 523.211 67.8051C523.211 68.3625 524.732 68.4639 525.949 68.0078C526.354 67.8558 526.557 67.3997 526.405 66.9436C526.151 66.3355 526.354 66.2341 527.267 66.5382C527.977 66.7916 528.534 66.6902 528.788 66.2341C529.143 65.7274 529.396 65.7274 529.954 66.2341C530.41 66.5889 530.866 66.6395 531.019 66.3355C531.171 66.0821 531.728 65.9808 532.286 66.1328C532.844 66.2848 533.655 65.9301 534.314 65.2206C535.125 64.3084 535.531 64.2071 535.987 64.6632C536.849 65.5247 538.674 65.4233 539.434 64.5111C539.789 64.055 540.448 63.8523 540.854 64.0044C541.26 64.1564 541.665 63.903 541.817 63.2949C542.122 62.028 543.845 61.5719 544.454 62.5854C545.011 63.599 547.546 63.0922 547.546 61.9773C547.546 60.9638 548.003 61.0145 549.169 62.0787C549.98 62.7881 550.335 62.8388 551.095 62.332C551.653 61.9773 552.363 61.7239 552.667 61.7239C552.971 61.7239 553.782 61.2678 554.492 60.7104C556.013 59.4942 557.179 59.3928 557.179 60.457C557.179 61.4199 557.179 61.4199 559.156 60.4063C560.018 60.0009 560.627 59.3928 560.474 59.1394C559.967 58.3793 561.641 58.6327 562.452 59.4942C563.364 60.3557 565.037 60.0516 565.494 58.9367C565.646 58.5313 566.153 58.1766 566.609 58.1766C567.116 58.1766 567.927 57.8218 568.434 57.3151C569.296 56.5549 569.397 56.5549 570.361 57.4164C571.223 58.1766 571.476 58.2273 572.237 57.6191C573.504 56.6056 573.91 55.9975 573.555 55.4907C573.403 55.2373 573.808 55.136 574.467 55.2373C575.279 55.3387 575.735 55.7948 575.836 56.5043C575.938 57.1631 576.191 57.6698 576.445 57.6698C577.205 57.6698 577.56 56.6563 577.002 55.9975C576.597 55.4907 576.901 55.3387 578.32 55.288C579.588 55.2373 580.45 54.8826 581.007 54.1225C581.768 53.1089 581.971 53.0583 582.934 53.6664C583.796 54.2238 584.151 54.2238 584.658 53.7171C585.114 53.261 585.114 53.1089 584.658 53.1089C584.303 53.1089 583.542 52.6528 582.934 52.0954C581.362 50.6765 579.841 50.7271 580.196 52.1968C580.348 52.8556 580.348 53.0583 580.196 52.7035C580.044 52.3995 579.689 52.2474 579.385 52.3995C579.132 52.5515 578.777 52.2474 578.625 51.69C578.371 50.6258 577.104 50.0683 574.822 50.0683C573.808 50.0683 573.403 50.3724 573.251 51.1832L573.048 52.3488L572.946 51.1832C572.896 50.4231 572.693 50.119 572.287 50.3724C571.983 50.5751 571.476 50.3724 571.172 49.967C570.868 49.5616 569.803 49.1055 568.738 48.9028C567.167 48.6494 566.863 48.8014 566.609 49.7136C566.356 50.7271 566.305 50.7271 565.088 49.4096C564.378 48.6494 563.364 47.9906 562.756 47.9906C560.474 47.8386 559.917 47.8893 559.004 48.2947C558.447 48.5481 557.686 48.4467 557.078 48.092C556.571 47.7879 555.912 47.6359 555.658 47.7879C555.405 47.9399 555.1 47.8386 554.898 47.5345C554.746 47.2811 554.036 47.1798 553.326 47.3318C552.464 47.5345 552.008 47.3825 551.805 46.8251C551.602 46.2676 550.943 46.0142 549.878 46.1156C549.017 46.1663 547.952 46.0142 547.546 45.7609C547.141 45.5075 545.366 45.3554 543.541 45.3554C540.955 45.3554 539.992 45.1527 539.181 44.3926C538.522 43.7338 537.66 43.4804 536.798 43.6324C535.987 43.7338 535.379 43.6324 535.379 43.3791C535.379 43.1764 534.517 42.9736 533.503 42.9736C532.438 42.9736 531.171 42.6189 530.664 42.2642C530.005 41.7574 529.295 41.6561 528.179 42.0108C526.963 42.3655 526.456 42.2642 525.999 41.6054C525.594 41.0479 524.884 40.8959 523.667 41.0479C522.704 41.2 521.538 41.0479 520.929 40.6425C520.372 40.2878 518.648 39.8824 517.026 39.7304C515.454 39.629 513.73 39.2743 513.173 38.9702C512.564 38.6661 511.347 38.4128 510.384 38.4128C509.472 38.4128 507.494 38.058 506.024 37.6019C504.199 37.0952 503.134 36.9938 502.83 37.2979C502.272 37.8553 501.106 37.6019 499.889 36.6391C498.977 35.9296 489.496 34.6627 488.736 35.1188C488.432 35.3215 487.722 35.0681 487.215 34.612C486.556 34.0039 485.44 33.7505 483.818 33.7505C482.5 33.8012 481.182 33.5985 480.877 33.3451C480.573 33.0917 478.951 32.737 477.278 32.5343C475.655 32.3316 473.932 32.0275 473.577 31.8248C473.171 31.5714 472.259 31.6221 471.6 31.8755C470.636 32.2302 470.129 32.1796 469.47 31.5714C468.862 31.014 467.189 30.6086 464.806 30.4566C462.778 30.3045 460.598 29.8484 459.99 29.443C459.28 28.9869 458.317 28.8349 457.353 29.0376C456.542 29.1897 455.731 29.139 455.579 28.8349C455.325 28.4295 452.131 27.8214 448.582 27.5173C448.075 27.4667 447.518 27.3146 447.366 27.1119C447.163 26.9092 446.149 26.9092 445.135 27.0612C443.766 27.2639 442.853 27.1119 441.89 26.5038C440.978 25.8957 440.369 25.7437 440.014 26.0984C439.659 26.4531 438.798 26.4024 437.378 25.8957C436.212 25.4903 434.235 25.0342 432.967 24.8822C431.7 24.7301 428.962 24.274 426.883 23.8686C424.805 23.5139 419.684 22.6017 415.476 21.8922C411.319 21.1828 406.604 20.372 405.083 20.0679C403.562 19.8145 401.635 19.5611 400.824 19.6118C400.013 19.6118 398.898 19.3584 398.289 19.0544C397.732 18.6996 395.856 18.2435 394.183 18.0408C391.242 17.6354 387.49 16.9766 384.803 16.4192C384.094 16.2672 379.886 15.507 375.424 14.7975C370.963 14.0881 367.211 13.4293 367.059 13.3279C366.4 12.9225 358.389 11.4022 355.956 11.2502C354.435 11.0982 352.914 10.7941 352.559 10.49C352.204 10.186 350.785 9.9326 349.365 9.88193C347.996 9.83125 346.678 9.57787 346.475 9.37516C346.272 9.17246 345.258 9.02043 344.244 9.02043C343.23 9.02043 342.216 8.81772 341.963 8.56434C341.659 8.31096 339.631 7.80419 337.349 7.50013C335.068 7.19608 332.533 6.73999 331.62 6.48661C330.708 6.23323 329.694 6.13188 329.288 6.28391C328.933 6.43594 328.122 6.28391 327.514 5.97985C326.855 5.62511 325.182 5.16902 323.762 4.96632C322.343 4.76361 320.619 4.40888 319.909 4.25685C318.591 3.90211 314.484 3.19264 309.769 2.4325C308.248 2.17911 306.068 1.7737 304.953 1.52032C299.883 0.253409 297.449 2.65119e-05 292.025 2.65119e-05C288.831 2.65119e-05 284.775 0.202732 283 0.456115ZM532.844 47.0278C532.844 47.2811 532.641 47.5345 532.337 47.5345C532.083 47.5345 531.83 47.2811 531.83 47.0278C531.83 46.7237 532.083 46.521 532.337 46.521C532.641 46.521 532.844 46.7237 532.844 47.0278ZM551.856 49.5616C552.008 49.815 551.805 50.0683 551.399 50.0683C550.943 50.0683 550.588 49.815 550.588 49.5616C550.588 49.2575 550.791 49.0548 551.045 49.0548C551.349 49.0548 551.704 49.2575 551.856 49.5616ZM556.723 49.9163C557.331 50.6765 557.331 50.7271 556.52 50.4231C556.013 50.2204 555.354 50.0683 555.1 50.0683C554.796 50.0683 554.746 49.815 554.898 49.5616C555.354 48.8014 555.962 48.9535 556.723 49.9163ZM561.488 50.0683C562.401 50.4738 562.35 50.5244 561.134 50.5244C560.322 50.5751 559.714 50.3217 559.714 50.0683C559.714 49.4602 560.12 49.4602 561.488 50.0683ZM564.48 52.6528C564.074 53.3623 562.756 53.1596 562.756 52.3995C562.756 51.9434 563.111 51.7913 563.77 51.9434C564.328 52.0954 564.632 52.3995 564.48 52.6528ZM574.924 52.3995C574.924 52.8049 574.721 53.0076 574.417 52.8556C574.163 52.7035 573.91 52.3488 573.91 52.0447C573.91 51.7913 574.163 51.5886 574.417 51.5886C574.721 51.5886 574.924 51.9434 574.924 52.3995ZM572.896 53.8184C572.896 54.8826 571.882 55.3387 571.223 54.6799C570.766 54.2238 570.817 53.9704 571.375 53.6157C572.439 52.9062 572.896 53.0076 572.896 53.8184ZM576.698 54.1225C576.546 54.3758 576.14 54.6292 575.887 54.6292C575.583 54.6292 575.532 54.3758 575.684 54.1225C575.836 53.8184 576.242 53.6157 576.495 53.6157C576.799 53.6157 576.85 53.8184 576.698 54.1225ZM556.165 54.3252C556.165 54.4772 555.962 54.7306 555.658 54.8826C555.405 55.0346 555.151 54.9333 555.151 54.6799C555.151 54.3758 555.405 54.1225 555.658 54.1225C555.962 54.1225 556.165 54.2238 556.165 54.3252ZM566.812 54.6292C566.812 54.8826 566.457 55.136 566.051 55.136C565.646 55.136 565.291 54.8826 565.291 54.6292C565.291 54.3252 565.646 54.1225 566.051 54.1225C566.457 54.1225 566.812 54.3252 566.812 54.6292ZM551.095 55.6428C551.095 55.8961 550.994 56.1495 550.892 56.1495C550.74 56.1495 550.487 55.8961 550.335 55.6428C550.183 55.3387 550.284 55.136 550.538 55.136C550.842 55.136 551.095 55.3387 551.095 55.6428ZM570.868 55.6428C570.868 55.8961 570.665 56.1495 570.361 56.1495C570.107 56.1495 569.854 55.8961 569.854 55.6428C569.854 55.3387 570.107 55.136 570.361 55.136C570.665 55.136 570.868 55.3387 570.868 55.6428ZM542.983 57.4671C542.983 57.8725 542.73 58.0752 542.476 57.9232C542.172 57.7205 542.071 57.3658 542.223 57.1124C542.679 56.4029 542.983 56.5549 542.983 57.4671ZM551.602 60.2543C551.602 60.7104 550.031 61.3185 549.726 61.0145C549.574 60.8624 549.574 60.5584 549.777 60.305C550.081 59.7982 551.602 59.6969 551.602 60.2543ZM499.889 70.3389C499.889 70.5923 499.687 70.8457 499.383 70.8457C499.129 70.8457 498.876 70.5923 498.876 70.3389C498.876 70.0349 499.129 69.8322 499.383 69.8322C499.687 69.8322 499.889 70.0349 499.889 70.3389ZM473.273 76.4201C473.425 76.6735 473.425 76.9269 473.171 76.9269C472.968 76.9269 472.208 77.0789 471.498 77.2309C470.281 77.535 470.231 77.535 471.245 76.7748C472.461 75.812 472.867 75.7106 473.273 76.4201Z" fill="black"/>
<path d="M460.091 79.9675C460.243 80.2209 460.497 80.4742 460.649 80.4742C460.75 80.4742 460.852 80.2209 460.852 79.9675C460.852 79.6634 460.598 79.4607 460.294 79.4607C460.04 79.4607 459.939 79.6634 460.091 79.9675Z" fill="black"/>
<path d="M454.362 96.8934C453.906 97.1468 452.03 97.4508 450.205 97.5015C448.329 97.6029 445.49 98.059 443.817 98.515C442.194 98.9711 439.152 99.5286 437.124 99.782C435.097 100.035 432.967 100.491 432.46 100.745C431.953 101.049 430.787 101.252 429.925 101.252C429.063 101.252 427.847 101.505 427.238 101.86C426.63 102.164 425.464 102.417 424.653 102.366C423.892 102.265 422.929 102.468 422.574 102.772C422.168 103.076 420.293 103.38 418.366 103.431C416.439 103.532 414.513 103.836 414.107 104.191C413.702 104.495 413.245 104.647 413.043 104.495C412.89 104.343 411.116 104.546 409.088 105.002C407.111 105.458 405.336 105.762 405.235 105.61C405.134 105.508 404.272 105.61 403.41 105.914C401.889 106.421 398.695 106.927 393.473 107.586C392.256 107.738 391.09 107.992 390.837 108.144C390.583 108.296 388.758 108.6 386.73 108.853C384.702 109.106 380.849 109.765 378.213 110.323C375.576 110.829 371.622 111.438 369.442 111.64C366.653 111.894 365.386 112.248 365.082 112.806C364.676 113.465 364.473 113.515 363.814 112.958C363.256 112.502 362.395 112.4 361.127 112.654C360.062 112.856 358.288 113.11 357.173 113.161C352.812 113.515 347.793 114.022 341.963 114.681C338.617 115.086 332.482 115.644 328.274 115.948C324.117 116.252 318.388 116.809 315.6 117.164C312.811 117.569 309.871 117.873 309.009 117.924C308.198 117.975 305.004 118.228 301.911 118.431C293.14 119.09 269.362 119.039 259.071 118.431C253.899 118.076 248.576 117.721 247.156 117.671C241.732 117.316 231.744 116.455 227.891 115.948C214.76 114.326 203.758 113.313 203.403 113.667C203.251 113.819 202.846 113.667 202.491 113.363C201.832 112.856 195.494 111.944 189.613 111.59C187.788 111.488 185.76 111.184 185.05 110.88C184.341 110.627 182.668 110.272 181.248 110.171C175.215 109.512 166.85 108.448 159.448 107.333C157.521 107.029 155.189 106.725 154.378 106.573C153.516 106.471 152.248 106.269 151.589 106.117C150.879 105.964 149.206 105.711 147.787 105.508C146.418 105.356 143.883 105.002 142.21 104.799C136.075 103.887 132.02 103.329 129.789 103.076C123.249 102.417 117.621 101.657 115.644 101.201C114.427 100.948 110.523 100.542 106.974 100.39L100.536 100.086L100.181 101.505C99.5216 104.039 100.383 170.83 101.043 171.54C101.803 172.249 124.111 173.111 131.563 172.705C134.352 172.553 137.647 172.553 138.915 172.756C140.182 172.959 145.759 173.009 151.336 172.857C156.913 172.705 171.311 172.553 183.276 172.452C195.292 172.351 209.183 172.148 214.202 171.945C223.886 171.59 256.079 171.033 261.555 171.134C263.329 171.134 265.053 170.982 265.357 170.78C265.661 170.526 268.196 170.526 270.985 170.729C273.773 170.932 276.207 170.982 276.359 170.881C276.511 170.78 281.074 170.577 286.499 170.476C300.694 170.07 312 169.614 312.406 169.361C312.608 169.209 317.273 169.006 322.799 168.854C328.325 168.753 333.851 168.499 335.119 168.398C336.386 168.246 340.391 168.144 343.991 168.195C352.508 168.297 350.785 168.297 364.879 168.043C371.672 167.891 377.3 167.688 377.452 167.536C377.807 167.232 385.868 167.486 386.223 167.84C386.375 167.992 386.73 167.942 387.034 167.638C387.389 167.384 388.403 167.384 389.468 167.587C390.786 167.891 391.749 167.84 392.712 167.334C393.574 166.878 394.284 166.776 394.639 167.08C395.298 167.638 408.632 167.536 409.544 166.928C409.899 166.726 410.153 166.776 410.153 167.03C410.153 167.587 421.864 167.486 423.943 166.928C424.653 166.726 425.717 166.776 426.275 167.08C426.934 167.435 427.847 167.435 429.114 167.08C430.534 166.675 431.193 166.726 431.75 167.182C432.308 167.638 432.764 167.638 433.778 167.182C434.792 166.726 435.502 166.726 436.871 167.232C438.291 167.739 438.696 167.739 439 167.182C439.305 166.726 439.812 166.624 440.623 166.878C442.296 167.435 445.135 167.283 445.895 166.624C446.352 166.219 446.656 166.219 446.909 166.624C447.366 167.384 449.495 167.232 450.205 166.371C450.712 165.763 450.965 165.712 451.624 166.219C452.486 166.979 460.345 167.232 460.345 166.523C460.345 165.915 461.713 166.016 462.879 166.726C463.691 167.232 464.096 167.232 464.907 166.726C465.465 166.421 466.378 166.117 466.935 166.117C468.101 166.117 468.152 165.56 467.24 162.925C466.834 161.911 466.733 160.898 466.986 160.746C467.645 160.391 467.544 157.806 466.885 157.148C466.479 156.742 466.479 156.286 466.885 155.577C467.696 154.056 467.594 151.928 466.682 151.928C466.276 151.928 465.921 151.675 465.921 151.421C465.921 151.117 466.175 150.915 466.428 150.915C467.341 150.915 467.037 146.962 466.073 146.404C465.262 145.948 465.262 145.898 465.972 145.593C466.733 145.34 466.783 144.479 466.53 138.6C466.428 134.901 466.073 131.759 465.769 131.607C465.465 131.404 465.516 130.593 465.921 129.428C466.327 128.161 466.378 127.35 466.023 126.945C465.719 126.59 465.465 124.056 465.414 121.269C465.364 118.482 465.212 113.921 465.11 111.133C464.958 108.346 464.806 105.255 464.806 104.292C464.806 99.4779 464.35 97.1975 463.437 97.1975C462.93 97.1975 462.372 97.0454 462.17 96.792C461.612 96.2853 455.376 96.336 454.362 96.8934Z" fill="black"/>
<path d="M546.532 166.523C546.532 166.776 545.214 166.979 543.643 166.979C538.522 166.979 535.886 167.182 535.886 167.587C535.886 167.84 534.365 168.043 532.54 168.094C530.664 168.144 528.686 168.449 528.078 168.803C527.52 169.158 525.999 169.462 524.732 169.462C520.879 169.563 516.215 170.172 514.846 170.678C514.085 170.982 512.716 171.185 511.702 171.185C510.587 171.185 509.624 171.489 509.269 171.996C508.762 172.705 508.407 172.756 506.835 172.249C505.517 171.793 504.706 171.793 503.996 172.148C503.438 172.452 502.171 172.705 501.157 172.705C499.078 172.705 495.834 173.922 495.834 174.682C495.834 174.986 495.58 175.239 495.276 175.239C495.022 175.239 494.921 174.986 495.124 174.631C495.377 174.226 494.82 174.175 492.995 174.479C491.626 174.682 489.04 174.935 487.316 175.036C485.542 175.189 483.615 175.493 483.108 175.797C482.551 176.05 481.638 176.151 481.131 175.999C480.573 175.797 479.407 175.999 478.545 176.455C477.633 176.912 476.416 177.114 475.503 176.912C474.692 176.759 473.729 176.861 473.374 177.165C473.019 177.469 470.991 177.874 468.811 178.077C466.023 178.33 464.907 178.634 464.907 179.091C464.907 179.952 462.525 180.053 462.271 179.243C462.119 178.787 461.764 178.837 460.852 179.293C460.192 179.648 458.469 180.003 457.1 180.104C451.472 180.51 448.278 181.168 447.112 182.182C446.504 182.638 445.946 182.739 445.084 182.435C444.121 182.03 437.784 182.841 437.784 183.347C437.784 183.398 436.77 183.55 435.502 183.651C430.584 184.057 429.266 184.26 428.911 184.868C428.658 185.273 427.999 185.374 427.188 185.172C426.022 184.868 422.32 185.476 420.293 186.287C419.887 186.439 418.619 186.641 417.504 186.692C416.389 186.743 414.209 187.047 412.688 187.351C411.167 187.706 409.24 188.01 408.378 188.111C404.525 188.516 402.041 189.074 402.041 189.479C402.041 189.733 401.382 189.783 400.52 189.631C399.658 189.429 398.695 189.581 398.289 189.885C397.884 190.239 396.718 190.442 395.602 190.391C394.538 190.341 392.662 190.594 391.394 190.949C390.127 191.304 388.302 191.608 387.288 191.658C386.274 191.709 385.057 192.013 384.651 192.418C384.195 192.773 383.384 192.925 382.877 192.773C382.37 192.571 380.342 192.824 378.415 193.229C375.019 193.989 367.059 195.307 363.51 195.763C362.547 195.864 359.708 196.321 357.173 196.777C354.688 197.233 350.582 197.892 348.047 198.246C341.557 199.26 337.147 200.071 335.321 200.628C334.46 200.881 333.091 201.084 332.28 201.084C330.759 201.084 325.841 201.946 319.402 203.314C311.24 205.037 297.956 206.202 287.006 206.202C281.175 206.202 275.497 206 274.432 205.696C273.368 205.442 269.667 204.936 266.168 204.632C262.67 204.327 259.121 203.871 258.259 203.567C257.397 203.314 256.079 203.111 255.319 203.111C254.558 203.111 252.987 202.909 251.821 202.655C250.655 202.402 247.968 201.946 245.889 201.642C235.851 200.273 227.181 198.905 221.047 197.841C218.664 197.435 214.709 196.878 212.174 196.574C209.69 196.27 205.786 195.712 203.555 195.358C201.325 194.952 197.674 194.446 195.444 194.243C193.213 194.091 190.374 193.584 189.106 193.179C187.839 192.824 184.442 192.266 181.501 191.962C178.561 191.709 174.809 191.253 173.136 191C171.463 190.746 168.827 190.391 167.306 190.189C162.946 189.682 158.636 189.023 155.899 188.466C152.907 187.807 140.385 186.033 132.577 185.07C129.535 184.716 125.733 184.158 124.212 183.905C122.691 183.601 118.939 183.145 115.847 182.841C112.805 182.537 109.56 182.08 108.647 181.776C107.177 181.32 97.8486 179.952 93.0322 179.547C91.9168 179.445 89.2805 178.989 87.2018 178.584C85.1232 178.128 82.0306 177.672 80.3575 177.52C78.6844 177.368 76.5044 177.013 75.5411 176.759C74.5778 176.557 70.674 175.949 66.9223 175.493C60.7371 174.732 52.2704 173.415 45.3754 172.199C44.0065 171.945 40.9139 171.489 38.531 171.185C36.1482 170.881 33.5119 170.374 32.65 170.121C31.7881 169.867 30.6727 169.766 30.2164 169.969C29.7602 170.121 28.4927 169.918 27.3773 169.462C25.4001 168.651 25.3494 168.702 23.8284 170.07C22.0032 171.743 21.9525 172.3 22.5102 191.962C23.0172 209.953 23.3214 235.291 23.22 244.666C23.1186 248.72 23.1186 254.193 23.1693 256.828C23.22 259.463 23.3721 280.9 23.5242 304.464C23.6763 328.029 23.8791 361.779 24.0312 379.465C24.1833 397.151 24.4368 429.432 24.6396 451.172C24.8424 473.217 25.1973 491.106 25.4508 491.562C25.7043 492.119 26.4647 492.474 27.3773 492.474C28.1885 492.474 28.949 492.676 29.1011 492.93C29.2532 493.133 30.9262 493.487 32.8021 493.639C34.7286 493.842 36.9594 494.095 37.7706 494.247C38.6324 494.399 40.7618 494.602 42.5869 494.653C44.4121 494.754 46.2372 495.008 46.6428 495.261C47.0484 495.514 48.5187 495.666 49.9383 495.666C51.3071 495.616 52.6253 495.717 52.8788 495.869C53.0816 495.97 54.856 496.173 56.7826 496.275C58.7598 496.427 60.7878 496.731 61.3455 497.035C61.8525 497.288 62.6129 497.44 62.9678 497.288C63.3227 497.136 65.2493 497.237 67.1758 497.541C71.3838 498.15 77.8733 498.96 81.2701 499.315C82.5882 499.467 84.6162 499.771 85.833 500.075C87.6581 500.481 95.0094 501.444 99.623 501.849C100.485 501.95 103.223 502.254 105.707 502.558C108.242 502.913 112.196 503.369 114.579 503.673C116.962 503.977 121.423 504.535 124.465 504.89C127.558 505.295 132.222 505.852 134.859 506.106C137.495 506.359 140.942 506.714 142.463 506.917C143.984 507.069 146.266 507.271 147.533 507.373C148.801 507.474 150.525 507.677 151.336 507.829C153.161 508.234 154.58 508.386 164.517 509.45C174.708 510.565 175.57 510.819 176.939 513.099C177.547 514.113 178.257 516.14 178.46 517.609C178.865 520.143 179.22 521.663 180.792 527.187C181.147 528.555 181.603 530.38 181.806 531.241C182.008 532.052 182.921 534.586 183.884 536.816C184.797 539.045 185.557 541.022 185.557 541.225C185.557 541.478 186.318 542.846 187.281 544.316C188.194 545.735 189.613 548.066 190.374 549.383C192.148 552.627 198.84 559.063 201.477 560.127C202.592 560.634 204.772 561.546 206.242 562.255C209.538 563.776 213.797 564.485 219.526 564.586C228.651 564.688 231.186 564.333 236.51 562.458C241.63 560.583 246.447 556.782 252.885 549.383C254.66 547.306 254.812 547.204 256.536 547.711C257.803 548.066 258.918 548.978 260.287 550.752C265.357 557.39 273.52 562.407 281.175 563.573C287.006 564.485 298.007 563.877 302.773 562.458C309.212 560.532 310.682 559.569 317.222 552.931L323.407 546.698L325.385 547.458C326.5 547.914 328.021 549.13 328.832 550.144C331.063 552.931 335.727 557.39 337.147 558.049C337.856 558.353 339.529 559.265 340.848 560.076C343.89 561.901 350.937 563.471 355.652 563.471C360.772 563.471 368.124 562.661 369.543 562.002C370.557 561.596 372.027 561.14 372.788 561.09C374.207 560.988 377.706 559.519 378.213 558.86C378.365 558.708 379.48 557.745 380.748 556.782C383.739 554.552 390.887 546.698 390.887 545.735C390.887 545.481 391.445 544.62 392.104 543.809C392.763 542.998 393.574 541.427 393.878 540.262C394.183 539.096 395.146 536.866 395.957 535.295C396.819 533.674 397.478 531.9 397.478 531.292C397.478 530.684 397.681 529.974 397.884 529.67C398.137 529.417 398.593 527.846 398.948 526.174C399.303 524.501 399.81 522.424 400.114 521.613C400.368 520.751 400.774 518.471 401.027 516.545C401.737 510.819 402.041 509.501 402.751 508.792C403.359 508.133 410.812 507.17 416.237 506.967C417.758 506.917 419.279 506.714 419.633 506.511C419.938 506.308 421.611 506.055 423.334 505.903C425.058 505.802 426.833 505.396 427.238 505.092C427.796 504.585 428.049 504.585 428.354 505.092C428.709 505.599 429.013 505.599 429.875 505.143C430.483 504.839 432.41 504.585 434.133 504.535C435.857 504.535 437.53 504.332 437.784 504.129C438.341 503.724 443.056 503.065 445.236 503.065C445.997 503.065 446.757 502.862 446.909 502.558C447.112 502.305 447.467 502.204 447.721 502.406C447.974 502.558 448.582 502.406 448.988 502.052C449.394 501.748 449.85 501.596 450.053 501.748C450.205 501.95 450.712 501.798 451.117 501.444C451.726 500.987 451.929 500.987 452.081 501.444C452.334 502.153 453.652 502.305 454.97 501.798C455.427 501.646 455.63 501.291 455.477 500.987C455.325 500.734 456.187 500.582 457.657 500.633C458.976 500.683 461.663 500.43 463.589 500.126C465.516 499.771 468.254 499.518 469.724 499.518C471.245 499.467 473.07 499.112 473.83 498.758C474.692 498.302 475.808 498.15 476.67 498.352C477.481 498.504 478.444 498.403 478.799 498.099C479.154 497.795 480.827 497.44 482.5 497.288C484.173 497.136 486.657 496.832 488.026 496.579C489.395 496.325 490.662 496.224 490.916 496.376C491.119 496.477 491.626 496.325 492.082 496.021C492.488 495.666 493.501 495.514 494.465 495.666C495.631 495.818 496.442 495.616 497.304 494.957C497.963 494.45 498.622 494.095 498.825 494.197C498.977 494.298 501.664 494.095 504.706 493.69C507.799 493.285 511.297 492.778 512.564 492.626C513.832 492.474 515.099 492.17 515.353 491.916C515.657 491.714 517.482 491.359 519.409 491.156C521.386 490.953 523.211 490.599 523.566 490.345C523.921 490.041 524.478 490.041 525.036 490.345C525.594 490.649 526.354 490.548 527.368 490.092C528.179 489.636 529.498 489.433 530.207 489.585C530.968 489.737 532.134 489.535 532.844 489.18C533.553 488.774 535.531 488.47 537.255 488.42C539.333 488.42 540.55 488.166 540.803 487.71C541.158 487.102 542.324 486.899 548.56 486.19C551.856 485.835 554.391 485.227 554.746 484.67C554.948 484.366 554.999 482.186 554.796 479.805C554.644 477.423 554.441 474.332 554.391 472.963C554.086 467.237 553.63 433.689 553.377 398.722C553.174 378.249 552.971 356.56 552.819 350.58C552.667 344.6 552.616 337.353 552.616 334.465C552.667 331.069 552.464 328.992 552.059 328.485C551.653 327.978 551.653 327.775 552.059 327.775C552.413 327.775 552.616 326.103 552.616 322.708C552.616 318.451 552.464 317.589 551.754 317.184C550.943 316.728 550.943 316.677 551.653 316.373C552.312 316.12 552.413 315.36 552.312 312.167C552.211 310.039 552.109 305.68 552.16 302.538C552.16 298.484 552.008 296.863 551.552 296.863C551.146 296.863 551.095 296.711 551.552 296.204C551.906 295.697 552.059 292.403 551.957 286.018C551.856 277.2 551.805 276.44 550.842 275.731L549.828 274.97L550.842 275.173C551.704 275.325 551.856 275.072 551.754 273.298C551.704 272.183 551.653 270.815 551.653 270.258C551.754 268.433 551.754 267.268 551.653 265.95C551.653 265.241 551.602 261.947 551.653 258.602C551.653 255.257 551.501 252.115 551.298 251.558C551.095 251.051 551.146 250.24 551.399 249.784C551.704 249.328 551.754 248.061 551.552 246.946C551.349 245.831 551.298 244.413 551.45 243.754C551.856 241.929 551.146 239.193 550.183 238.939C549.473 238.737 549.524 238.635 550.487 238.331C551.805 237.875 551.957 236.456 550.842 234.328C549.929 232.605 549.878 231.946 550.69 232.149C551.602 232.301 551.704 225.612 550.791 224.851C549.929 224.142 549.878 223.331 550.74 223.534C551.146 223.585 551.349 222.875 551.399 221.203C551.399 219.53 551.247 218.821 550.74 218.821C549.929 218.821 549.878 218.213 550.639 217.453C551.349 216.743 551.298 203.922 550.588 203.719C549.929 203.466 549.929 202.098 550.588 202.098C551.349 202.098 551.247 188.77 550.487 188.01C550.081 187.604 550.081 187.402 550.436 187.402C550.69 187.402 550.892 186.895 550.842 186.236C550.791 185.628 550.69 184.716 550.639 184.209C550.639 183.753 550.233 183.347 549.726 183.347C549.017 183.347 549.017 183.246 549.878 182.283C550.69 181.371 550.791 180.357 550.842 174.175C550.842 167.891 550.74 167.131 549.98 167.131C549.524 167.131 548.966 166.878 548.814 166.624C548.459 166.016 546.532 165.965 546.532 166.523ZM542.476 169.158C542.476 169.411 542.223 169.665 541.919 169.665C541.665 169.665 541.564 169.411 541.716 169.158C541.868 168.854 542.122 168.651 542.274 168.651C542.375 168.651 542.476 168.854 542.476 169.158ZM537.153 174.732C537.305 174.986 537.204 175.239 536.95 175.239C536.646 175.239 536.393 174.986 536.393 174.732C536.393 174.428 536.494 174.226 536.595 174.226C536.748 174.226 537.001 174.428 537.153 174.732ZM547.546 184.361C547.546 184.614 547.344 184.868 547.039 184.868C546.786 184.868 546.532 184.614 546.532 184.361C546.532 184.057 546.786 183.854 547.039 183.854C547.344 183.854 547.546 184.057 547.546 184.361ZM454.007 184.868C454.159 185.121 454.058 185.374 453.804 185.374C453.5 185.374 453.247 185.121 453.247 184.868C453.247 184.564 453.348 184.361 453.449 184.361C453.602 184.361 453.855 184.564 454.007 184.868ZM549.828 191.912C549.98 192.165 549.878 192.52 549.574 192.723C549.321 192.875 549.067 192.672 549.067 192.266C549.067 191.354 549.372 191.202 549.828 191.912ZM524.326 198.652C524.225 199.158 524.326 199.564 524.529 199.564C524.783 199.564 524.935 203.719 524.833 208.787C524.732 215.628 524.884 218.111 525.34 218.365C525.797 218.669 525.746 218.973 525.138 219.682C524.478 220.443 524.377 221 524.732 222.571C524.935 223.635 525.036 225.257 524.884 226.22C524.732 227.183 524.833 227.943 525.087 227.943C525.34 227.943 525.847 228.551 526.202 229.26C526.709 230.426 526.709 230.578 525.949 230.274C525.543 230.122 524.985 230.071 524.732 230.223C524.377 230.477 525.087 233.112 525.898 234.328C526.101 234.683 525.898 235.037 525.492 235.24C524.529 235.595 524.529 236.71 525.543 238.686C526.304 240.156 526.304 240.308 525.543 240.865C524.529 241.625 524.529 242.842 525.543 243.855C526.253 244.615 526.253 244.767 525.29 245.984C524.326 247.2 524.326 248.72 525.29 248.72C525.543 248.72 525.746 249.277 525.746 249.987C525.746 250.696 525.543 251.254 525.239 251.254C524.478 251.254 524.631 252.369 525.543 254.244C526.304 255.764 526.304 255.916 525.442 256.575C524.631 257.132 524.631 257.436 525.138 258.551C525.594 259.565 525.594 260.224 525.188 260.933C524.884 261.541 524.783 262.808 524.985 263.974C525.188 265.241 525.138 265.95 524.783 265.95C524.073 265.95 524.073 267.825 524.732 268.078C525.036 268.18 525.391 269.143 525.594 270.207C525.797 271.575 525.746 272.082 525.34 271.828C525.087 271.676 524.732 271.828 524.58 272.133C524.326 273.045 524.732 274.565 525.29 274.565C525.999 274.565 525.797 276.085 524.985 276.947C524.478 277.454 524.377 277.91 524.631 278.315C524.884 278.619 525.239 280.139 525.34 281.66C525.492 283.18 525.746 284.802 525.949 285.258C526.151 285.714 525.847 286.525 525.239 287.234C524.124 288.552 523.971 289.058 524.732 289.515C524.985 289.667 525.188 291.086 525.138 292.657C525.087 294.481 525.29 295.596 525.644 295.748C526.506 296.001 526.405 296.863 525.543 296.863C524.428 296.863 524.225 299.244 525.29 300.511C525.999 301.322 526.101 301.728 525.695 302.234C525.391 302.64 524.884 302.792 524.631 302.64C524.022 302.285 524.478 304.059 525.391 305.934C525.847 306.897 525.847 307.201 525.391 307.353C524.478 307.657 524.58 310.292 525.492 311.255C525.898 311.66 526.253 312.116 526.253 312.268C526.253 312.42 525.898 312.572 525.492 312.572C524.174 312.572 524.174 319.464 525.492 321.339C525.898 321.948 526.253 322.657 526.253 322.961C526.253 323.214 525.999 323.062 525.695 322.556C525.391 322.1 524.985 321.795 524.681 321.948C524.022 322.404 524.124 323.772 524.985 325.444C525.949 327.218 525.949 327.117 524.732 327.421C523.819 327.623 523.769 327.877 524.225 329.093C524.529 329.853 524.631 330.816 524.478 331.221C524.276 331.829 524.326 331.88 524.985 331.323C525.594 330.816 525.746 330.816 525.746 331.475C525.746 331.88 526.05 332.336 526.405 332.488C526.76 332.64 526.658 332.894 525.999 333.147C524.529 333.704 524.174 334.465 524.935 335.377C526.151 336.796 526.253 337.86 525.188 338.164C524.022 338.569 523.921 339.887 524.985 341.255C525.949 342.522 525.949 342.978 524.985 342.978C523.921 342.978 524.022 345.461 525.087 346.678C525.949 347.59 525.949 347.64 525.087 348.097C524.073 348.705 523.971 350.428 524.935 351.543C525.29 351.999 525.746 353.012 525.949 353.874C526.253 355.242 526.202 355.293 525.594 354.482C525.188 354.026 524.732 353.62 524.529 353.62C524.326 353.62 524.225 356.813 524.326 360.715C524.478 366.34 524.631 367.962 525.239 368.316C525.898 368.722 525.898 368.823 525.188 368.823C524.478 368.823 524.326 369.533 524.276 373.485C524.225 378.249 524.225 386.357 524.276 387.32C524.276 387.574 524.174 389.55 524.073 391.628C523.87 394.263 524.022 395.834 524.529 396.797C525.442 398.621 525.442 399.28 524.428 398.874C523.718 398.621 523.617 398.773 523.921 400.04C524.174 400.851 524.326 403.334 524.276 405.564C524.276 407.793 524.225 412.456 524.225 415.952C524.225 419.449 524.225 422.844 524.174 423.554C524.174 424.263 524.124 426.29 524.073 428.115C523.971 429.939 524.073 431.865 524.276 432.422C524.428 432.98 524.428 433.993 524.174 434.703C523.971 435.412 523.667 437.388 523.515 439.111C523.312 441.493 523.414 442.456 523.971 443.014C524.833 443.824 524.985 444.534 524.225 444.078C523.921 443.875 523.769 447.524 523.819 454.365C523.921 463.639 523.819 465.108 523.059 466.274C522.349 467.389 521.943 467.541 520.727 467.338C519.916 467.136 519.104 467.288 518.952 467.592C518.749 467.896 518.04 468.149 517.381 468.149C516.722 468.149 516.012 468.402 515.86 468.656C515.708 468.909 514.339 469.163 512.818 469.163C510.587 469.163 509.928 469.365 509.269 470.277C508.559 471.342 508.407 471.342 508.001 470.582C507.494 469.72 506.176 469.771 504.098 470.784C503.236 471.19 502.779 471.19 502.171 470.683C501.512 470.125 501.208 470.176 500.346 470.987C499.737 471.544 498.622 471.899 497.608 471.848C496.341 471.798 495.834 472 495.834 472.558C495.834 473.065 495.58 473.217 494.972 472.963C492.944 472.153 492.285 472.102 491.981 472.862C491.778 473.419 490.865 473.622 488.381 473.622C485.795 473.622 484.68 473.876 483.615 474.686C482.398 475.599 481.993 475.649 481.182 475.142C480.371 474.636 479.914 474.686 478.9 475.193C478.241 475.599 477.278 475.751 476.771 475.548C476.264 475.345 475.757 475.446 475.554 475.751C475.402 476.004 474.287 476.308 473.07 476.409C471.346 476.511 470.89 476.713 470.687 477.626C470.332 478.943 469.47 479.197 469.47 478.031C469.47 477.119 467.899 477.017 467.037 477.879C466.733 478.183 465.364 478.436 463.944 478.335C462.525 478.284 461.308 478.487 461.105 478.791C460.852 479.146 459.99 479.247 458.621 479.045C457.151 478.842 456.745 478.892 457.303 479.247C457.911 479.653 457.911 479.906 457.455 480.362C456.948 480.869 456.542 480.869 455.528 480.311C454.565 479.805 454.007 479.754 452.993 480.21C452.283 480.565 451.016 480.818 450.205 480.818C449.394 480.818 448.177 481.072 447.467 481.376C446.554 481.832 445.997 481.832 445.49 481.426C444.831 480.869 443.513 481.325 443.563 482.136C443.563 482.389 442.701 482.541 441.637 482.44C440.521 482.338 439.507 482.541 439.305 482.795C439.152 483.099 438.24 483.352 437.378 483.352C436.465 483.352 435.147 483.656 434.387 484.061C433.626 484.467 432.866 484.568 432.612 484.315C432.359 484.061 430.635 484.264 428.506 484.872C426.528 485.43 424.146 485.886 423.284 485.886C422.371 485.886 421.408 486.241 421.053 486.697C420.597 487.355 420.242 487.406 419.481 487.001C418.822 486.646 418.163 486.646 417.707 486.95C417.352 487.203 416.338 487.406 415.578 487.406C414.766 487.406 413.651 487.66 413.043 488.014C412.434 488.369 411.319 488.572 410.558 488.47C409.849 488.42 409.088 488.572 408.885 488.876C408.328 489.839 406.908 489.433 405.083 487.761L403.308 486.089V471.443C403.258 456.798 402.649 401.966 402.244 381.746C402.142 375.867 402.041 370.749 402.092 370.344C402.294 366.391 401.737 336.948 401.433 336.644C401.281 336.492 400.621 336.289 399.962 336.188C399.303 336.137 398.036 335.681 397.225 335.275C396.16 334.718 394.284 334.414 391.496 334.414C387.947 334.414 386.831 334.617 384.144 335.833L381.001 337.252L381.102 339.988C381.153 341.509 381.204 345.816 381.153 349.566C381.153 353.316 381.153 356.762 381.153 357.168C381.204 357.573 381.305 368.621 381.457 381.746C381.914 429.027 382.116 438.554 382.471 439.162C382.674 439.517 382.674 440.024 382.522 440.277C382.319 440.581 382.167 442.608 382.167 444.737C382.167 446.865 382.167 453.554 382.167 459.534C382.167 465.514 382.167 471.696 382.116 473.217C382.116 474.737 382.167 478.487 382.218 481.477C382.319 487.761 381.356 500.937 380.697 502.204C380.443 502.66 380.241 503.521 380.241 504.079C380.241 505.447 377.706 513.2 377.148 513.555C376.894 513.707 376.692 514.214 376.692 514.67C376.692 515.582 373.599 519.991 371.216 522.525C369.543 524.299 365.943 526.427 364.575 526.427C364.017 526.427 363.459 526.63 363.307 526.883C362.597 528.049 353.928 527.745 351.444 526.478C350.987 526.224 349.72 525.616 348.655 525.109C346.272 523.944 342.47 520.295 341.355 518.116C340.949 517.255 340.29 516.19 339.935 515.785C338.87 514.619 336.741 507.879 335.879 503.014C335.169 499.264 335.017 491.764 334.865 452.845C334.713 427.659 334.51 400.243 334.307 391.881C334.155 383.519 334.054 376.374 334.054 376.019C334.206 374.398 334.206 372.523 333.953 355.749C333.75 343.384 333.496 337.657 333.091 337.15C332.787 336.745 330.911 335.934 328.933 335.326C323.509 333.654 318.033 334.161 312.811 336.846C311.341 337.607 311.392 334.617 312 390.361C312.761 456.341 312.913 466.477 313.115 467.642C313.217 468.352 313.318 475.852 313.318 484.366C313.369 499.264 313.318 500.025 312.101 504.991C309.465 515.532 304.852 522.829 298.97 525.768C294.813 527.846 293.546 528.15 288.729 528.099C285.231 528.099 284.217 527.846 281.277 526.478C278.032 524.907 275.193 522.677 273.925 520.599C273.57 520.042 272.658 518.572 271.948 517.407C270.174 514.518 268.247 509.754 268.196 508.285C268.196 507.626 267.943 506.663 267.639 506.106C267.385 505.548 267.03 504.129 266.929 502.964C266.827 501.798 266.523 497.998 266.168 494.501C265.864 491.004 265.509 478.588 265.408 466.882C264.85 409.111 264.597 381.391 264.445 361.424C264.293 344.093 264.09 339.38 263.583 338.468C263.177 337.86 261.859 336.846 260.592 336.238C256.029 334.009 244.976 335.377 243.354 338.417C243.1 338.873 242.999 341.863 243.1 345.056C243.202 348.249 243.455 361.424 243.607 374.398C243.76 387.371 244.013 410.733 244.216 426.341C245.027 491.866 244.723 503.673 242.188 510.971C240.971 514.569 237.371 521.613 236.256 522.677C231.085 527.643 227.232 529.164 219.931 529.012C216.534 528.91 213.29 527.643 210.298 525.312C207.054 522.728 205.127 520.65 203.454 518.015C201.882 515.582 198.638 508.082 198.84 507.271C198.942 506.714 198.232 503.977 197.674 502.964C197.421 502.457 197.319 501.9 197.421 501.646C197.573 501.444 197.472 499.873 197.218 498.251C196.965 496.629 196.61 492.068 196.458 488.166C196.306 484.264 196.052 477.626 195.9 473.47C195.697 469.264 195.596 465.615 195.596 465.362C195.697 463.943 195.596 449.956 195.444 440.784C195.342 432.017 194.886 394.415 194.43 354.38C194.379 348.806 194.278 342.928 194.227 341.357L194.176 338.468L191.337 337.1C188.65 335.833 188.143 335.782 183.529 336.036C178.51 336.289 175.367 337.252 174.049 338.924C173.542 339.482 173.44 342.573 173.643 351.593C173.795 358.13 173.998 374.347 174.15 387.574C174.302 400.8 174.556 420.513 174.657 431.409C174.961 455.176 175.316 474.18 175.722 481.122C175.975 486.139 175.975 486.241 174.606 487.862C173.136 489.636 173.085 489.636 164.517 488.622C163.402 488.47 161.678 488.268 160.715 488.166C159.752 488.116 157.673 487.812 156.152 487.507C150.829 486.545 143.731 485.48 140.182 485.126C136.228 484.72 136.43 484.771 128.014 483.352C124.668 482.795 119.649 482.085 116.861 481.781C114.072 481.477 111.385 481.021 110.929 480.768C110.422 480.514 109.357 480.311 108.597 480.311C107.786 480.311 106.974 480.159 106.822 479.957C106.619 479.805 105.859 479.551 105.098 479.501C104.287 479.399 102.259 479.197 100.485 478.994C98.7611 478.842 97.1895 478.487 97.0374 478.234C96.8853 477.98 96.0234 477.778 95.1108 477.778C94.1983 477.778 93.2857 477.626 93.1336 477.474C92.9308 477.271 92.0689 477.068 91.1563 477.017C90.2437 476.967 88.013 476.612 86.1878 476.308C84.3627 475.953 81.9799 475.7 80.8645 475.7C79.7491 475.7 77.924 475.446 76.8086 475.142C75.6932 474.838 74.2229 474.585 73.5132 474.484C63.8297 473.571 59.3682 472.305 58.05 470.024C55.8193 466.375 55.5151 464.044 55.0081 448.639C54.9067 445.547 54.6532 439.517 54.5011 435.209C54.2983 430.902 54.0955 412.861 54.0448 395.175C53.9435 377.438 53.7914 362.691 53.6393 362.438C53.4365 362.185 53.183 359.6 53.0309 356.661C52.8788 353.722 52.5746 349.262 52.3718 346.779C52.169 344.245 52.0676 341.306 52.169 340.191C52.2704 339.076 52.3211 337.809 52.2704 337.404C52.2704 336.998 52.169 328.992 52.0676 319.667C51.9155 310.343 51.662 301.88 51.4592 300.866C51.2564 299.701 51.3071 298.89 51.662 298.636C51.9662 298.484 52.0676 298.079 51.9155 297.775C51.7127 297.471 51.6113 294.532 51.662 291.187C51.7127 287.183 51.5606 284.852 51.155 284.396C50.6987 283.839 50.6987 283.687 51.2057 283.687C51.662 283.687 51.7127 280.9 51.4592 271.626C51.2564 265.038 51.0029 255.967 50.9015 251.507C50.8508 247.048 50.5973 238.027 50.4452 231.49C49.6848 202.351 49.5834 205.341 51.1043 203.871C51.9662 203.01 52.676 202.706 53.183 202.959C53.6393 203.162 55.0081 203.365 56.2756 203.415C57.5431 203.466 59.571 203.77 60.8385 204.074C62.765 204.53 68.3419 205.189 80.3575 206.405C81.4729 206.507 83.5008 206.811 84.8697 207.064C86.2892 207.368 88.1651 207.469 89.0777 207.317C90.193 207.115 90.7507 207.216 90.7507 207.621C90.7507 208.027 91.3084 208.128 92.4745 207.925C93.6406 207.672 94.7052 207.875 95.8206 208.432C97.0374 209.04 97.5951 209.142 97.8486 208.686C98.1021 208.23 98.7104 208.23 100.282 208.635C102.462 209.243 108.343 210.155 112.044 210.459C113.312 210.561 115.695 210.865 117.368 211.169C119.041 211.473 124.06 212.081 128.521 212.537C132.983 212.942 137.089 213.5 137.647 213.753C138.205 214.007 140.283 214.311 142.21 214.463C146.671 214.868 149.511 215.223 153.364 215.831C157.572 216.49 163.503 217.199 170.094 217.807C176.634 218.466 177.344 218.517 180.994 219.226C182.515 219.48 184.239 219.733 184.797 219.733C186.369 219.733 208.068 222.419 213.949 223.382C215.774 223.635 218.41 223.99 219.779 224.142C223.277 224.497 229.31 225.308 232.961 225.916C234.634 226.22 237.017 226.574 238.284 226.676C245.534 227.385 247.207 227.639 247.765 228.044C248.12 228.348 252.226 229.007 256.891 229.514C261.605 230.02 266.878 230.679 268.703 230.983C270.528 231.287 273.013 231.591 274.28 231.743C275.548 231.845 278.285 232.149 280.364 232.352C287.31 233.01 299.427 232.2 300.948 230.933C301.353 230.629 302.317 230.527 303.128 230.73C303.99 230.933 304.953 230.882 305.308 230.629C305.663 230.426 306.677 230.172 307.488 230.122C311.949 229.767 313.774 229.564 314.332 229.21C314.941 228.804 314.991 228.804 322.19 227.943C324.979 227.588 327.463 227.081 327.767 226.878C328.021 226.625 329.136 226.422 330.302 226.422C331.418 226.422 333.344 226.169 334.612 225.865C335.879 225.561 337.907 225.206 339.175 225.105C344.194 224.699 345.867 224.446 346.526 223.889C346.881 223.585 349.01 223.28 351.241 223.23C353.979 223.179 355.195 222.926 355.043 222.571C354.891 222.166 355.956 222.014 358.541 222.064C360.569 222.166 363.054 221.912 364.017 221.557C366.45 220.696 372.382 219.784 375.526 219.834C376.438 219.834 377.3 219.581 377.452 219.328C377.604 219.024 378.77 218.821 379.987 218.821C381.204 218.821 382.37 218.568 382.522 218.314C382.674 218.01 383.485 217.807 384.296 217.807C386.071 217.807 387.389 217.301 387.085 216.794C386.933 216.54 387.643 216.642 388.657 216.946C390.228 217.402 390.532 217.402 390.989 216.642C391.344 215.983 391.648 215.882 392.408 216.287C393.828 217.047 395.45 216.895 395.45 215.983C395.45 215.476 395.754 215.274 396.363 215.476C398.898 216.236 399.912 216.338 400.216 215.831C400.419 215.527 401.433 215.274 402.548 215.274C403.765 215.274 404.576 215.02 404.728 214.564C404.982 213.956 405.387 213.905 406.655 214.26C407.77 214.615 408.53 214.564 408.987 214.209C409.342 213.855 410.305 213.753 411.167 213.905C412.181 214.108 412.891 213.956 413.448 213.449C414.057 212.841 414.766 212.689 416.49 212.993C417.859 213.196 418.772 213.094 418.772 212.79C418.772 212.537 420.495 212.182 422.574 211.98C424.653 211.777 426.731 211.321 427.238 210.966C427.847 210.51 428.506 210.459 429.52 210.814C430.534 211.169 431.193 211.169 431.7 210.713C432.105 210.358 433.17 210.206 434.083 210.358C435.147 210.51 436.06 210.307 436.567 209.902C437.023 209.496 438.95 209.04 440.876 208.939C442.803 208.787 445.845 208.432 447.67 208.128C449.495 207.875 451.422 207.621 451.979 207.621C452.537 207.571 454.463 207.216 456.289 206.76C458.114 206.355 460.243 206.05 461.054 206.101C461.815 206.152 462.778 205.898 463.184 205.594C463.589 205.29 464.502 205.189 465.414 205.392C466.479 205.645 467.392 205.493 468.254 204.936C469.115 204.327 469.724 204.226 470.383 204.581C471.397 205.138 475.453 204.226 476.72 203.213C477.227 202.756 477.582 202.706 477.836 203.111C478.241 203.77 480.979 203.77 481.435 203.061C481.638 202.706 482.551 202.604 483.717 202.756C485.086 202.909 485.846 202.756 486.252 202.25C486.708 201.743 487.418 201.591 488.482 201.794C489.344 201.996 490.257 201.946 490.46 201.743C490.865 201.338 492.437 201.135 496.594 200.932C498.014 200.881 499.281 200.577 499.484 200.324C499.839 199.868 503.236 199.513 507.19 199.513C508.001 199.513 508.965 199.31 509.32 199.006C509.674 198.753 510.486 198.652 511.195 198.804C511.956 199.006 512.716 198.854 513.071 198.449C513.578 197.942 515.251 197.74 519.155 197.74C524.124 197.74 524.58 197.79 524.326 198.652ZM529.802 218.821C529.802 219.074 529.548 219.328 529.244 219.328C528.991 219.328 528.889 219.074 529.041 218.821C529.193 218.517 529.447 218.314 529.599 218.314C529.7 218.314 529.802 218.517 529.802 218.821ZM543.997 231.49C543.997 231.743 543.795 231.997 543.49 231.997C543.237 231.997 542.983 231.743 542.983 231.49C542.983 231.186 543.237 230.983 543.49 230.983C543.795 230.983 543.997 231.186 543.997 231.49ZM549.067 236.254C549.067 236.406 548.865 236.659 548.56 236.811C548.307 236.963 548.053 236.862 548.053 236.608C548.053 236.304 548.307 236.051 548.56 236.051C548.865 236.051 549.067 236.152 549.067 236.254ZM548.56 247.2C548.56 247.453 548.205 247.554 547.8 247.402C547.394 247.2 547.191 246.896 547.344 246.642C547.648 246.085 548.56 246.541 548.56 247.2ZM528.129 247.808C527.977 248.213 527.825 248.061 527.825 247.504C527.774 246.946 527.926 246.642 528.078 246.845C528.23 246.997 528.281 247.453 528.129 247.808ZM530.055 248.72C530.207 248.973 530.106 249.227 529.852 249.227C529.548 249.227 529.295 248.973 529.295 248.72C529.295 248.416 529.396 248.213 529.498 248.213C529.65 248.213 529.903 248.416 530.055 248.72ZM527.774 252.774C527.774 253.028 527.52 253.281 527.216 253.281C526.963 253.281 526.861 253.028 527.013 252.774C527.165 252.47 527.419 252.267 527.571 252.267C527.672 252.267 527.774 252.47 527.774 252.774ZM549.574 257.842C549.574 258.095 549.219 258.349 548.814 258.349C548.408 258.349 548.053 258.095 548.053 257.842C548.053 257.538 548.408 257.335 548.814 257.335C549.219 257.335 549.574 257.538 549.574 257.842ZM531.323 286.221C531.323 286.474 531.12 286.727 530.866 286.727C530.562 286.727 530.207 286.474 530.055 286.221C529.903 285.917 530.106 285.714 530.512 285.714C530.968 285.714 531.323 285.917 531.323 286.221ZM530.106 301.778C529.599 302.285 529.143 301.525 529.599 300.866C529.903 300.309 530.005 300.309 530.207 300.866C530.309 301.221 530.258 301.626 530.106 301.778ZM540.195 310.039C540.347 310.292 540.246 310.545 539.992 310.545C539.688 310.545 539.435 310.292 539.435 310.039C539.435 309.734 539.536 309.532 539.637 309.532C539.789 309.532 540.043 309.734 540.195 310.039Z" fill="black"/>
<path d="M299.477 587.036C299.427 587.087 286.752 587.239 271.34 587.391C242.746 587.695 241.833 587.796 241.833 589.621C241.833 590.33 243.709 593.117 246.801 596.918C247.663 598.083 248.424 599.249 248.424 599.604C248.424 600.313 254.406 609.384 256.84 612.374C257.803 613.54 258.564 614.604 258.564 614.756C258.564 615.466 262.467 621.699 264.647 624.537C265.966 626.209 267.841 629.097 268.805 630.922C269.819 632.746 271.086 634.773 271.695 635.432C272.252 636.04 272.759 636.8 272.759 637.104C272.759 637.358 273.672 638.675 274.787 639.993C275.903 641.31 276.815 642.577 276.815 642.729C276.815 643.236 281.479 650.28 284.268 654.081C285.637 655.804 287.411 658.54 288.273 660.162C289.135 661.733 290.149 663 290.504 663C291.264 663 295.472 657.122 297.095 653.878C297.652 652.763 299.021 650.584 300.137 649.064C303.077 645.01 305.206 641.716 307.995 637.155C309.364 634.925 311.189 632.189 312.101 631.074C312.963 629.959 314.738 627.222 316.056 624.993C317.323 622.763 319.503 619.317 320.872 617.391C322.241 615.415 324.32 612.222 325.537 610.297C328.426 605.533 334.155 596.766 335.524 595.094C335.727 594.79 336.234 593.776 336.64 592.813C337.045 591.85 337.654 590.786 338.008 590.533C338.414 590.229 338.769 589.316 338.82 588.506L338.921 586.985H319.25C308.4 586.985 299.528 587.036 299.477 587.036Z" fill="black"/>
</svg>
